<svg width="16" height="16" viewBox="0 0 16 16" fill="none" xmlns="http://www.w3.org/2000/svg">
<path d="M12.1263 11.833H5.02634C4.36634 11.833 3.733 11.553 3.28634 11.0663C2.83967 10.5797 2.61301 9.92634 2.66634 9.26634L3.21968 2.62634C3.23968 2.41968 3.16634 2.21968 3.02634 2.06635C2.88634 1.91301 2.693 1.83301 2.48634 1.83301H1.33301C1.05967 1.83301 0.833008 1.60634 0.833008 1.33301C0.833008 1.05967 1.05967 0.833008 1.33301 0.833008H2.49301C2.97968 0.833008 3.43967 1.03967 3.76634 1.39301C3.94634 1.59301 4.07967 1.82634 4.15301 2.08634H12.4797C13.153 2.08634 13.773 2.35301 14.2263 2.83301C14.673 3.31967 14.8997 3.95301 14.8463 4.62634L14.4863 9.62634C14.413 10.8463 13.3463 11.833 12.1263 11.833ZM4.18634 3.07967L3.66634 9.34633C3.63301 9.733 3.75967 10.0997 4.01967 10.3863C4.27967 10.673 4.63967 10.8263 5.02634 10.8263H12.1263C12.8197 10.8263 13.4463 10.2397 13.4997 9.54635L13.8597 4.54635C13.8863 4.15301 13.7597 3.77968 13.4997 3.50635C13.2397 3.22635 12.8797 3.073 12.4863 3.073H4.18634V3.07967Z" fill="#334155"/>
<path d="M10.8333 15.1667C10.1 15.1667 9.5 14.5667 9.5 13.8333C9.5 13.1 10.1 12.5 10.8333 12.5C11.5667 12.5 12.1667 13.1 12.1667 13.8333C12.1667 14.5667 11.5667 15.1667 10.8333 15.1667ZM10.8333 13.5C10.6467 13.5 10.5 13.6467 10.5 13.8333C10.5 14.02 10.6467 14.1667 10.8333 14.1667C11.02 14.1667 11.1667 14.02 11.1667 13.8333C11.1667 13.6467 11.02 13.5 10.8333 13.5Z" fill="#334155"/>
<path d="M5.50033 15.1667C4.76699 15.1667 4.16699 14.5667 4.16699 13.8333C4.16699 13.1 4.76699 12.5 5.50033 12.5C6.23366 12.5 6.83366 13.1 6.83366 13.8333C6.83366 14.5667 6.23366 15.1667 5.50033 15.1667ZM5.50033 13.5C5.31366 13.5 5.16699 13.6467 5.16699 13.8333C5.16699 14.02 5.31366 14.1667 5.50033 14.1667C5.68699 14.1667 5.83366 14.02 5.83366 13.8333C5.83366 13.6467 5.68699 13.5 5.50033 13.5Z" fill="#334155"/>
<path d="M14 5.83301H6C5.72667 5.83301 5.5 5.60634 5.5 5.33301C5.5 5.05967 5.72667 4.83301 6 4.83301H14C14.2733 4.83301 14.5 5.05967 14.5 5.33301C14.5 5.60634 14.2733 5.83301 14 5.83301Z" fill="#334155"/>
</svg>
