<svg width="60" height="60" viewBox="0 0 60 60" fill="none" xmlns="http://www.w3.org/2000/svg">
<g filter="url(#filter0_d_13_1326)">
<rect x="14" y="13" width="32" height="32" rx="16" fill="white"/>
<path d="M34.1263 32.833H27.0263C26.3663 32.833 25.733 32.553 25.2863 32.0663C24.8397 31.5797 24.613 30.9263 24.6663 30.2663L25.2197 23.6263C25.2397 23.4197 25.1663 23.2197 25.0263 23.0663C24.8863 22.913 24.693 22.833 24.4863 22.833H23.333C23.0597 22.833 22.833 22.6063 22.833 22.333C22.833 22.0597 23.0597 21.833 23.333 21.833H24.493C24.9797 21.833 25.4397 22.0397 25.7663 22.393C25.9463 22.593 26.0797 22.8263 26.153 23.0863H34.4797C35.153 23.0863 35.773 23.353 36.2263 23.833C36.673 24.3197 36.8997 24.953 36.8463 25.6263L36.4863 30.6263C36.413 31.8463 35.3463 32.833 34.1263 32.833ZM26.1863 24.0797L25.6663 30.3463C25.633 30.733 25.7597 31.0997 26.0197 31.3863C26.2797 31.673 26.6397 31.8263 27.0263 31.8263H34.1263C34.8197 31.8263 35.4463 31.2397 35.4997 30.5463L35.8597 25.5463C35.8863 25.153 35.7597 24.7797 35.4997 24.5063C35.2397 24.2263 34.8797 24.073 34.4863 24.073H26.1863V24.0797Z" fill="#334155"/>
<path d="M32.8333 36.1667C32.1 36.1667 31.5 35.5667 31.5 34.8333C31.5 34.1 32.1 33.5 32.8333 33.5C33.5667 33.5 34.1667 34.1 34.1667 34.8333C34.1667 35.5667 33.5667 36.1667 32.8333 36.1667ZM32.8333 34.5C32.6467 34.5 32.5 34.6467 32.5 34.8333C32.5 35.02 32.6467 35.1667 32.8333 35.1667C33.02 35.1667 33.1667 35.02 33.1667 34.8333C33.1667 34.6467 33.02 34.5 32.8333 34.5Z" fill="#334155"/>
<path d="M27.5003 36.1667C26.767 36.1667 26.167 35.5667 26.167 34.8333C26.167 34.1 26.767 33.5 27.5003 33.5C28.2337 33.5 28.8337 34.1 28.8337 34.8333C28.8337 35.5667 28.2337 36.1667 27.5003 36.1667ZM27.5003 34.5C27.3137 34.5 27.167 34.6467 27.167 34.8333C27.167 35.02 27.3137 35.1667 27.5003 35.1667C27.687 35.1667 27.8337 35.02 27.8337 34.8333C27.8337 34.6467 27.687 34.5 27.5003 34.5Z" fill="#334155"/>
<path d="M36 26.833H28C27.7267 26.833 27.5 26.6063 27.5 26.333C27.5 26.0597 27.7267 25.833 28 25.833H36C36.2733 25.833 36.5 26.0597 36.5 26.333C36.5 26.6063 36.2733 26.833 36 26.833Z" fill="#334155"/>
</g>
<defs>
<filter id="filter0_d_13_1326" x="0" y="0" width="60" height="60" filterUnits="userSpaceOnUse" color-interpolation-filters="sRGB">
<feFlood flood-opacity="0" result="BackgroundImageFix"/>
<feColorMatrix in="SourceAlpha" type="matrix" values="0 0 0 0 0 0 0 0 0 0 0 0 0 0 0 0 0 0 127 0" result="hardAlpha"/>
<feOffset dy="1"/>
<feGaussianBlur stdDeviation="7"/>
<feComposite in2="hardAlpha" operator="out"/>
<feColorMatrix type="matrix" values="0 0 0 0 0 0 0 0 0 0 0 0 0 0 0 0 0 0 0.15 0"/>
<feBlend mode="normal" in2="BackgroundImageFix" result="effect1_dropShadow_13_1326"/>
<feBlend mode="normal" in="SourceGraphic" in2="effect1_dropShadow_13_1326" result="shape"/>
</filter>
</defs>
</svg>
