<svg width="30" height="30" viewBox="0 0 30 30" fill="none" xmlns="http://www.w3.org/2000/svg">
<rect width="30" height="30" rx="4" fill="#F8FAFC"/>
<path d="M12.5695 21.8201C12.3795 21.8201 12.1895 21.7501 12.0395 21.6001L5.96945 15.5301C5.67945 15.2401 5.67945 14.7601 5.96945 14.4701L12.0395 8.40012C12.3295 8.11012 12.8095 8.11012 13.0995 8.40012C13.3895 8.69012 13.3895 9.17012 13.0995 9.46012L7.55945 15.0001L13.0995 20.5401C13.3895 20.8301 13.3895 21.3101 13.0995 21.6001C12.9595 21.7501 12.7595 21.8201 12.5695 21.8201Z" fill="#544B6C"/>
<path d="M23.4999 15.75H6.66992C6.25992 15.75 5.91992 15.41 5.91992 15C5.91992 14.59 6.25992 14.25 6.66992 14.25H23.4999C23.9099 14.25 24.2499 14.59 24.2499 15C24.2499 15.41 23.9099 15.75 23.4999 15.75Z" fill="#544B6C"/>
</svg>
