<svg width="25" height="25" viewBox="0 0 25 25" fill="none" xmlns="http://www.w3.org/2000/svg">
<path d="M2.16699 2.5H3.907C4.987 2.5 5.83699 3.43 5.74699 4.5L4.91699 14.46C4.77699 16.09 6.06699 17.49 7.70699 17.49H18.357C19.797 17.49 21.057 16.31 21.167 14.88L21.707 7.38C21.827 5.72 20.567 4.37 18.897 4.37H5.987" stroke="#94A3B8" stroke-width="1.5" stroke-miterlimit="10" stroke-linecap="round" stroke-linejoin="round"/>
<path d="M16.417 22.5C17.1073 22.5 17.667 21.9404 17.667 21.25C17.667 20.5596 17.1073 20 16.417 20C15.7266 20 15.167 20.5596 15.167 21.25C15.167 21.9404 15.7266 22.5 16.417 22.5Z" stroke="#94A3B8" stroke-width="1.5" stroke-miterlimit="10" stroke-linecap="round" stroke-linejoin="round"/>
<path d="M8.41699 22.5C9.10735 22.5 9.66699 21.9404 9.66699 21.25C9.66699 20.5596 9.10735 20 8.41699 20C7.72664 20 7.16699 20.5596 7.16699 21.25C7.16699 21.9404 7.72664 22.5 8.41699 22.5Z" stroke="#94A3B8" stroke-width="1.5" stroke-miterlimit="10" stroke-linecap="round" stroke-linejoin="round"/>
<path d="M9.16699 8.5H21.167" stroke="#94A3B8" stroke-width="1.5" stroke-miterlimit="10" stroke-linecap="round" stroke-linejoin="round"/>
</svg>
