<svg width="25" height="25" viewBox="0 0 25 25" fill="none" xmlns="http://www.w3.org/2000/svg">
<path d="M16.417 23C17.3835 23 18.167 22.2165 18.167 21.25C18.167 20.2835 17.3835 19.5 16.417 19.5C15.4505 19.5 14.667 20.2835 14.667 21.25C14.667 22.2165 15.4505 23 16.417 23Z" fill="#286AB0"/>
<path d="M8.41699 23C9.38349 23 10.167 22.2165 10.167 21.25C10.167 20.2835 9.38349 19.5 8.41699 19.5C7.45049 19.5 6.66699 20.2835 6.66699 21.25C6.66699 22.2165 7.45049 23 8.41699 23Z" fill="#286AB0"/>
<path d="M5.00699 4.44L4.80699 6.89C4.76699 7.36 5.13699 7.75 5.60699 7.75H20.917C21.337 7.75 21.687 7.43 21.717 7.01C21.847 5.24 20.497 3.8 18.727 3.8H6.43699C6.33699 3.36 6.13699 2.94 5.82699 2.59C5.32699 2.06 4.62699 1.75 3.90699 1.75H2.16699C1.75699 1.75 1.41699 2.09 1.41699 2.5C1.41699 2.91 1.75699 3.25 2.16699 3.25H3.90699C4.21699 3.25 4.50699 3.38 4.71699 3.6C4.92699 3.83 5.02699 4.13 5.00699 4.44Z" fill="#286AB0"/>
<path d="M20.677 9.25H5.33705C4.91705 9.25 4.57705 9.57 4.53705 9.98L4.17705 14.33C4.03705 16.04 5.37705 17.5 7.08705 17.5H18.207C19.707 17.5 21.027 16.27 21.137 14.77L21.467 10.1C21.507 9.64 21.147 9.25 20.677 9.25Z" fill="#286AB0"/>
</svg>
