<svg width="24" height="18" viewBox="0 0 24 18" fill="none" xmlns="http://www.w3.org/2000/svg">
<path d="M23.9392 1.57731C23.8394 1.26745 23.6256 1.00409 23.3383 0.83658L22.2236 0.184114C22.2236 0.184114 22.2231 0.184114 22.2231 0.183639C21.6147 -0.171302 20.8534 0.00521953 20.5262 0.577017L17.7798 5.39246V1.49047C17.7798 0.6686 17.1198 0 16.3088 0H1.47095C0.660004 0 0 0.6686 0 1.49047V16.511C0 17.3319 0.660004 18 1.47095 18H16.3088C17.1198 18 17.7798 17.3319 17.7798 16.511V13.1632L23.8515 2.51923C24.0128 2.23594 24.0437 1.9014 23.9392 1.57731ZM17.0814 12.8709C17.079 12.8747 17.0767 12.879 17.0743 12.8828L16.8123 13.3421L16.1237 12.9397L21.6325 3.28226L22.3215 3.68465L17.0814 12.8709ZM14.8168 14.4738L14.7034 12.9857L16.1471 13.8294L14.8168 14.4738ZM15.4749 12.5606L14.7868 12.1582L20.2947 2.50025L20.9833 2.90264L15.4749 12.5606ZM7.05989 0.758759H10.7204V6.02499L9.11068 4.84249C9.04668 4.79552 8.96965 4.77024 8.8906 4.77024C8.81155 4.77024 8.73452 4.79552 8.67052 4.84249L7.05942 6.02547V0.758759H7.05989ZM16.3093 17.2417H1.47095C1.07298 17.2417 0.749536 16.9138 0.749536 16.5114V1.49047C0.749536 1.08713 1.07298 0.758759 1.47095 0.758759H6.31035V6.76857C6.31035 6.91092 6.38957 7.04189 6.51473 7.10642C6.5763 7.1382 6.64535 7.15214 6.71425 7.1467C6.78316 7.14125 6.84924 7.11664 6.9052 7.07558L8.89083 5.61785L10.8751 7.07558C10.9391 7.12259 11.0163 7.14784 11.0954 7.14771C11.1535 7.14771 11.2116 7.13395 11.2655 7.10642C11.327 7.07464 11.3787 7.02627 11.4147 6.96665C11.4508 6.90702 11.4699 6.83848 11.4699 6.76857V0.758759H16.3093C16.7073 0.758759 17.0307 1.08713 17.0307 1.49047V6.70688L13.974 12.0666C13.92 12.1595 13.896 12.2671 13.9051 12.3746L14.0907 14.8098C14.1029 14.993 14.207 15.1595 14.3715 15.2573C14.4601 15.3085 14.5562 15.3341 14.6523 15.3341C14.7329 15.3341 14.8135 15.3161 14.8895 15.2796L17.0303 14.2423V16.5114C17.0307 16.9138 16.7068 17.2417 16.3093 17.2417ZM23.2023 2.14009L22.6961 3.02744L20.6692 1.84304L21.1745 0.956634C21.2926 0.749743 21.6015 0.697071 21.8486 0.840851L22.9633 1.49332C23.0903 1.56734 23.1836 1.68075 23.2262 1.81219C23.2647 1.92988 23.2558 2.04613 23.2023 2.14009ZM6.56535 13.3193C6.56535 13.5291 6.39754 13.6985 6.19082 13.6985H3.33143C3.12471 13.6985 2.95689 13.5286 2.95689 13.3193C2.95689 13.1101 3.12471 12.9402 3.33143 12.9402H6.19082C6.39754 12.9402 6.56535 13.1101 6.56535 13.3193ZM6.56535 15.2644C6.56535 15.4741 6.39754 15.6435 6.19082 15.6435H3.33143C3.12471 15.6435 2.95689 15.4736 2.95689 15.2644C2.95689 15.0551 3.12471 14.8852 3.33143 14.8852H6.19082C6.39754 14.8852 6.56535 15.0546 6.56535 15.2644Z" fill="#475569"/>
</svg>
