<svg width="28" height="28" viewBox="0 0 28 28" fill="none" xmlns="http://www.w3.org/2000/svg">
<g clip-path="url(#clip0_13_1744)">
<path d="M20.5185 18.3142C20.2747 18.0695 19.9849 17.8753 19.6658 17.7428C19.3467 17.6103 19.0046 17.5421 18.6592 17.5421C18.3137 17.5421 17.9716 17.6103 17.6525 17.7428C17.3334 17.8753 17.0436 18.0695 16.7998 18.3142L15.531 19.5829C14.1025 18.6763 12.779 17.614 11.5848 16.4154C10.3888 15.2189 9.32667 13.8957 8.41728 12.4692L9.68603 11.2004C9.93075 10.9566 10.1249 10.6668 10.2574 10.3477C10.3899 10.0286 10.4581 9.68654 10.4581 9.34106C10.4581 8.99557 10.3899 8.65348 10.2574 8.33441C10.1249 8.01533 9.93075 7.72555 9.68603 7.48168L7.20978 5.01418C6.96935 4.76865 6.68201 4.57396 6.36485 4.44168C6.04768 4.30941 5.70716 4.24224 5.36353 4.24418C5.01745 4.24333 4.67462 4.31093 4.35476 4.44307C4.03491 4.57522 3.74434 4.76931 3.49978 5.01418L2.30978 6.19543C1.74258 6.80528 1.31925 7.53448 1.07092 8.32944C0.82259 9.12441 0.755566 9.96491 0.874776 10.7892C1.15478 14.0704 3.30728 18.0167 6.62353 21.3417C9.93978 24.6667 13.9298 26.8104 17.211 27.1254C17.4559 27.1385 17.7012 27.1385 17.946 27.1254C18.6523 27.1551 19.3575 27.0434 20.0201 26.797C20.6827 26.5506 21.2895 26.1744 21.8048 25.6904L22.986 24.5004C23.2309 24.2559 23.425 23.9653 23.5571 23.6454C23.6893 23.3256 23.7569 22.9828 23.756 22.6367C23.758 22.293 23.6908 21.9525 23.5585 21.6354C23.4262 21.3182 23.2316 21.0309 22.986 20.7904L20.5185 18.3142ZM21.7523 23.2667L20.5623 24.4479C20.1223 24.8146 19.6086 25.0825 19.0561 25.2335C18.5036 25.3844 17.9251 25.415 17.3598 25.3229C14.516 25.0779 10.8935 23.0654 7.90103 20.0729C4.90853 17.0804 2.89603 13.4842 2.62478 10.6404C2.53042 10.0751 2.55978 9.49604 2.71084 8.94316C2.8619 8.39028 3.13106 7.87673 3.49978 7.43793L4.73353 6.24793C4.81529 6.16684 4.91225 6.10268 5.01886 6.05913C5.12547 6.01559 5.23962 5.99352 5.35478 5.99418C5.46993 5.99352 5.58409 6.01559 5.69069 6.05913C5.7973 6.10268 5.89427 6.16684 5.97603 6.24793L8.45228 8.75043C8.61524 8.91437 8.70672 9.13614 8.70672 9.36731C8.70672 9.59847 8.61524 9.82024 8.45228 9.98418L6.70228 11.7342C6.56534 11.8704 6.47734 12.0482 6.45202 12.2397C6.42669 12.4312 6.46546 12.6258 6.56228 12.7929C7.60999 14.5766 8.88342 16.2176 10.351 17.6754C11.8088 19.143 13.4499 20.4165 15.2335 21.4642C15.4007 21.561 15.5952 21.5998 15.7867 21.5744C15.9783 21.5491 16.156 21.4611 16.2923 21.3242L18.0423 19.5742C18.2062 19.4112 18.428 19.3197 18.6592 19.3197C18.8903 19.3197 19.1121 19.4112 19.276 19.5742L21.7523 22.0504C21.8334 22.1322 21.8975 22.2292 21.9411 22.3358C21.9846 22.4424 22.0067 22.5565 22.006 22.6717C22.0005 22.8951 21.9098 23.108 21.7523 23.2667Z" fill="#475569"/>
<path d="M23.275 4.71628C22.059 3.49563 20.6134 2.52776 19.0215 1.86849C17.4296 1.20921 15.723 0.871569 14 0.875026C13.7679 0.875026 13.5454 0.967213 13.3813 1.13131C13.2172 1.2954 13.125 1.51796 13.125 1.75003C13.125 1.98209 13.2172 2.20465 13.3813 2.36874C13.5454 2.53284 13.7679 2.62503 14 2.62503C15.5019 2.62497 16.989 2.92235 18.3754 3.50001C19.7618 4.07767 21.02 4.92416 22.0776 5.99064C23.1351 7.05713 23.971 8.32248 24.5369 9.71369C25.1029 11.1049 25.3877 12.5944 25.375 14.0963C25.375 14.3283 25.4672 14.5509 25.6313 14.715C25.7954 14.8791 26.0179 14.9713 26.25 14.9713C26.4821 14.9713 26.7046 14.8791 26.8687 14.715C27.0328 14.5509 27.125 14.3283 27.125 14.0963C27.1418 12.355 26.8097 10.6279 26.1485 9.01696C25.4873 7.40599 24.5103 5.94369 23.275 4.71628Z" fill="#475569"/>
<path d="M18.296 9.72152C18.7926 10.2151 19.1854 10.803 19.4514 11.4507C19.7173 12.0983 19.8511 12.7927 19.8447 13.4928C19.8447 13.7248 19.9369 13.9474 20.101 14.1115C20.2651 14.2756 20.4877 14.3678 20.7197 14.3678C20.9518 14.3678 21.1743 14.2756 21.3384 14.1115C21.5025 13.9474 21.5947 13.7248 21.5947 13.4928C21.6063 12.5662 21.4338 11.6465 21.0872 10.7871C20.7406 9.92771 20.2268 9.14567 19.5757 8.48636C18.9245 7.82706 18.1489 7.3036 17.2939 6.94636C16.4388 6.58912 15.5214 6.4052 14.5947 6.40527C14.3627 6.40527 14.1401 6.49746 13.976 6.66155C13.8119 6.82565 13.7197 7.04821 13.7197 7.28027C13.7197 7.51234 13.8119 7.7349 13.976 7.89899C14.1401 8.06309 14.3627 8.15527 14.5947 8.15527C15.2843 8.16047 15.9661 8.30146 16.6012 8.5702C17.2362 8.83895 17.8121 9.23017 18.296 9.72152Z" fill="#475569"/>
</g>
<defs>
<clipPath id="clip0_13_1744">
<rect width="28" height="28" fill="white"/>
</clipPath>
</defs>
</svg>
