<svg width="28" height="28" viewBox="0 0 28 28" fill="none" xmlns="http://www.w3.org/2000/svg">
<path d="M25.1971 14.2634L20.1761 12.5898V4.80339C20.1761 4.50802 19.9871 4.24577 19.7069 4.15235L14.2167 2.32228C14.0758 2.27534 13.9235 2.27543 13.7826 2.32228L8.29243 4.15235C8.0122 4.24573 7.8232 4.50797 7.8232 4.80339V12.5898L2.80224 14.2634C2.52201 14.3568 2.33301 14.6191 2.33301 14.9145V23.1955C2.33301 23.4909 2.52201 23.7532 2.80224 23.8466L8.29243 25.6767C8.36289 25.7001 8.43618 25.7119 8.50948 25.7119C8.58277 25.7119 8.65607 25.7001 8.72652 25.6767L13.9997 23.9189L19.2729 25.6767C19.3433 25.7001 19.4166 25.7119 19.4899 25.7119C19.5631 25.7119 19.6365 25.7001 19.7069 25.6767L25.1971 23.8466C25.4773 23.7532 25.6663 23.4909 25.6663 23.1955V14.9145C25.6663 14.6191 25.4773 14.3568 25.1971 14.2634ZM19.4899 16.0211L16.1699 14.9145L19.4899 13.8078L22.8098 14.9145L19.4899 16.0211ZM8.50948 13.8078L11.8294 14.9145L8.50948 16.0211L5.18947 14.9145L8.50948 13.8078ZM13.3134 7.12808V13.9623L9.19575 12.5898V5.75553L13.3134 7.12808ZM18.8036 12.5898L14.6859 13.9623V7.12808L18.8036 5.75553V12.5898ZM9.19575 17.2392L13.3134 15.8666V22.7009L9.19575 24.0734V17.2392ZM13.9997 3.69671L17.3196 4.80339L13.9997 5.91003L10.6797 4.80339L13.9997 3.69671ZM3.70556 15.8666L7.8232 17.2392V24.0734L3.70556 22.7009V15.8666ZM14.6859 15.8666L18.8036 17.2392V24.0734L14.6859 22.7009V15.8666ZM20.1761 24.0734V17.2392L24.2938 15.8666V22.7009L20.1761 24.0734Z" fill="#475569"/>
</svg>
