<svg width="28" height="28" viewBox="0 0 28 28" fill="none" xmlns="http://www.w3.org/2000/svg">
<path d="M17.9387 9.6875C17.7027 9.6875 17.5111 9.87863 17.5111 10.115C17.5111 10.3511 17.7027 10.5425 17.9387 10.5425C18.1752 10.5425 18.3663 10.3511 18.3663 10.115C18.3663 10.0588 18.3553 10.0032 18.3338 9.95128C18.3124 9.89939 18.2809 9.85225 18.2412 9.81254C18.2014 9.77284 18.1543 9.74135 18.1024 9.7199C18.0505 9.69844 17.9949 9.68743 17.9387 9.6875ZM10.1698 17.4563C9.93323 17.4563 9.74219 17.6479 9.74219 17.8839C9.74213 17.9401 9.75315 17.9957 9.77462 18.0476C9.79609 18.0995 9.82758 18.1467 9.8673 18.1864C9.90701 18.2261 9.95417 18.2576 10.0061 18.279C10.058 18.3005 10.1136 18.3115 10.1698 18.3115C10.4058 18.3115 10.5974 18.1204 10.5974 17.8839C10.5974 17.6479 10.4058 17.4563 10.1698 17.4563Z" fill="#475569"/>
<path d="M24.4686 5.68425C24.3976 5.66772 24.3236 5.66963 24.2535 5.6898C24.1835 5.70997 24.1197 5.74773 24.0684 5.79948L22.2958 7.58613H21.446L20.5105 6.61689V5.75523L22.2577 3.98192C22.3086 3.93028 22.3455 3.86654 22.365 3.79671C22.3844 3.72688 22.3858 3.65324 22.3689 3.58273C22.3522 3.51223 22.3177 3.44717 22.2689 3.39364C22.22 3.34012 22.1584 3.29989 22.0897 3.27675C21.6507 3.12877 21.1914 3.05377 20.7243 3.05377C19.3316 3.05377 18.0664 3.70318 17.253 4.83542C16.4917 5.89535 16.257 7.1943 16.5933 8.43745L13.4437 11.587L8.19645 6.32776V5.29558C8.19646 5.22174 8.17734 5.14916 8.14096 5.0849C8.10458 5.02065 8.05218 4.96691 7.98886 4.92893L4.96556 3.1147C4.88381 3.0656 4.78798 3.04526 4.69333 3.05692C4.59868 3.06858 4.51065 3.11157 4.44327 3.17905L3.23402 4.38812C3.16663 4.4556 3.1237 4.54365 3.11205 4.6383C3.1004 4.73295 3.1207 4.82878 3.16971 4.91058L4.98356 7.93389C5.02153 7.99717 5.07523 8.04955 5.13945 8.08593C5.20366 8.1223 5.27619 8.14144 5.35 8.14148L6.38192 8.14182L11.6296 13.4011L8.49208 16.5386C7.24893 16.2025 5.94929 16.4376 4.88885 17.1994C3.75734 18.0123 3.1084 19.2772 3.1084 20.6698C3.1084 21.1368 3.1834 21.5963 3.33138 22.0351C3.35466 22.1041 3.39521 22.1661 3.44919 22.2151C3.50317 22.2641 3.56878 22.2985 3.63979 22.315C3.7108 22.3315 3.78485 22.3296 3.85491 22.3094C3.92496 22.2893 3.9887 22.2515 4.04006 22.1998L5.81251 20.4132H6.66703L7.64064 21.3868V22.2413L5.85407 24.0138C5.80233 24.0652 5.76458 24.1289 5.7444 24.199C5.72422 24.269 5.72229 24.3431 5.73879 24.4141C5.75529 24.4851 5.78967 24.5507 5.83867 24.6047C5.88766 24.6587 5.94965 24.6992 6.01873 24.7225C6.45752 24.8705 6.917 24.9455 7.384 24.9455C8.77663 24.9455 10.0414 24.2964 10.8544 23.1649C11.6162 22.1044 11.8512 20.805 11.5152 19.5618L14.0351 17.0419L14.6123 17.6689L14.3474 17.9337C14.1804 18.1007 14.1804 18.3714 14.3474 18.5385C14.5144 18.7053 14.785 18.7053 14.9522 18.5385L15.1921 18.2986L20.608 24.1815C20.612 24.1858 20.6162 24.19 20.6204 24.1942C21.6225 25.1963 23.2462 25.1966 24.2488 24.194C25.2486 23.1937 25.2486 21.5661 24.2488 20.5658C24.2444 20.5614 24.24 20.5572 24.2354 20.5531L18.3433 15.1475L18.5805 14.9103C18.7475 14.7435 18.7475 14.4727 18.5805 14.3057C18.4135 14.1387 18.1429 14.1387 17.9757 14.3057L17.7127 14.5689L17.0845 13.9923L19.6166 11.4602C19.9779 11.5567 20.3503 11.6055 20.7243 11.6052C23.0819 11.6052 24.9999 9.6871 24.9999 7.32959C24.9999 6.86241 24.9249 6.4031 24.777 5.96415C24.7537 5.89506 24.7132 5.83307 24.6592 5.78408C24.6052 5.73509 24.5396 5.70072 24.4686 5.68425ZM6.86192 7.41228C6.78175 7.33189 6.67302 7.29102 6.55945 7.29102L5.59239 7.29068L4.07482 4.75691L4.81188 4.01985L7.34129 5.53776V6.50478C7.3413 6.61801 7.38623 6.72661 7.46623 6.80674L12.839 12.1918L12.2343 12.7964L6.86192 7.41228ZM17.738 15.7528L23.6502 21.1766C24.3106 21.844 24.3086 22.9246 23.644 23.5895C22.9779 24.2556 21.8996 24.2576 21.2308 23.5954L15.7972 17.6933L17.738 15.7528ZM17.1073 15.174L15.2175 17.0636L14.6403 16.4366L16.4792 14.5975L17.1073 15.174ZM20.7243 10.7501C20.3527 10.7505 19.9836 10.6903 19.6314 10.5719C19.556 10.5465 19.4749 10.5427 19.3974 10.5609C19.3199 10.5791 19.249 10.6185 19.1927 10.6747C17.0491 12.8183 12.4302 17.4371 10.7294 19.138C10.673 19.1943 10.6335 19.2653 10.6153 19.3428C10.5972 19.4204 10.601 19.5015 10.6265 19.577C10.9819 20.6324 10.8119 21.7581 10.1598 22.6659C9.5096 23.571 8.49777 24.0903 7.38404 24.0903C7.25893 24.0903 7.13451 24.0834 7.01124 24.0703L8.36932 22.7227C8.40939 22.683 8.44118 22.6357 8.46289 22.5836C8.48459 22.5315 8.49576 22.4756 8.49576 22.4192V21.2096C8.49573 21.0962 8.45067 20.9875 8.37048 20.9073L7.14639 19.6832C7.06623 19.603 6.95749 19.5579 6.84409 19.5579H5.63447C5.57802 19.5579 5.52213 19.5691 5.47003 19.5908C5.41792 19.6125 5.37061 19.6443 5.33084 19.6843L3.98344 21.0424C3.97005 20.9186 3.96336 20.7942 3.96339 20.6696C3.96339 19.5558 4.48247 18.5441 5.38779 17.8938C6.29538 17.2418 7.42129 17.0716 8.4769 17.4272C8.55235 17.4526 8.63341 17.4565 8.71094 17.4383C8.78846 17.4201 8.85936 17.3806 8.91564 17.3243C8.9392 17.3009 17.3729 8.86704 17.3789 8.86101C17.4352 8.80471 17.4747 8.73381 17.4929 8.6563C17.511 8.57878 17.5072 8.49773 17.4818 8.42227C17.1262 7.36683 17.2959 6.24143 17.9474 5.33428C18.5983 4.4284 19.6103 3.90893 20.7241 3.90893C20.8531 3.90893 20.9812 3.91612 21.1081 3.93014L19.7783 5.27984C19.6995 5.3598 19.6553 5.46757 19.6553 5.57984V6.78946C19.6553 6.90024 19.6983 7.00671 19.7753 7.08638L20.9566 8.31054C20.9965 8.35187 21.0443 8.38473 21.0972 8.40717C21.15 8.4296 21.2069 8.44115 21.2643 8.44113H22.4739C22.5303 8.44113 22.5862 8.42996 22.6383 8.40826C22.6904 8.38656 22.7376 8.35476 22.7774 8.31469L24.1248 6.95678C24.1381 7.08005 24.1448 7.20448 24.1448 7.32959C24.1448 9.21565 22.6104 10.7501 20.7243 10.7501H20.7243Z" fill="#475569"/>
<path d="M16.4269 11.0217L11.0763 16.3723C10.9095 16.5392 10.9095 16.81 11.0763 16.9769C11.2433 17.144 11.5141 17.144 11.6811 16.9769L17.0317 11.6264C17.1987 11.4595 17.1987 11.1888 17.0317 11.0218C16.8647 10.8547 16.594 10.8547 16.4269 11.0218V11.0217ZM21.8301 22.3802C21.9972 22.5468 22.2679 22.5468 22.435 22.3792C22.6016 22.212 22.6012 21.9413 22.434 21.7746L18.5799 17.9328C18.4127 17.7662 18.1418 17.7667 17.9753 17.9339C17.8084 18.1012 17.8089 18.3718 17.9761 18.5385L21.8301 22.3802Z" fill="#475569"/>
</svg>
