<svg width="28" height="28" viewBox="0 0 28 28" fill="none" xmlns="http://www.w3.org/2000/svg">
<path d="M3.19773 10.4092C3.22978 10.2736 3.22978 10.1323 3.19773 9.99658L2.97237 9.03645C2.87125 8.60666 3.09558 8.16638 3.50272 7.9951L4.41199 7.61339C4.56456 7.54945 4.69665 7.44486 4.79386 7.31101C4.89107 7.17717 4.94968 7.0192 4.96329 6.85434L5.04559 5.87157C5.06349 5.65838 5.15631 5.45841 5.30759 5.30713C5.45887 5.15586 5.65883 5.06304 5.87202 5.04514L6.85479 4.96284C7.01966 4.94923 7.17762 4.89062 7.31146 4.79341C7.44531 4.6962 7.5499 4.56411 7.61384 4.41154L7.99556 3.50227C8.16683 3.09512 8.60706 2.87085 9.0369 2.97192L9.99703 3.19728C10.1581 3.23511 10.3265 3.22809 10.4839 3.17696C10.6413 3.12583 10.7816 3.03256 10.8897 2.90728L11.5333 2.16042C11.8222 1.82623 12.31 1.74885 12.6878 1.97755L13.5314 2.48909C13.6728 2.57473 13.835 2.62 14.0004 2.62C14.1658 2.62 14.328 2.57473 14.4694 2.48909L15.313 1.97755C15.6908 1.74885 16.1786 1.82618 16.4675 2.16042L17.1111 2.90728C17.2192 3.03256 17.3595 3.12583 17.5169 3.17696C17.6743 3.22809 17.8427 3.23511 18.0038 3.19728L18.9639 2.97192C19.3937 2.8708 19.834 3.09512 20.0052 3.50227L20.3869 4.41154C20.4509 4.56411 20.5555 4.6962 20.6893 4.79341C20.8232 4.89062 20.9811 4.94923 21.146 4.96284L22.1288 5.04514C22.342 5.06304 22.5419 5.15586 22.6932 5.30713C22.8445 5.45841 22.9373 5.65838 22.9552 5.87157L23.0375 6.85434C23.0511 7.0192 23.1097 7.17717 23.2069 7.31101C23.3041 7.44486 23.4362 7.54945 23.5888 7.61339L24.4981 7.9951C24.9052 8.16638 25.1295 8.60666 25.0284 9.03645L24.8031 9.99658C24.771 10.1323 24.771 10.2736 24.8031 10.4092M3.19773 17.5908C3.22978 17.7264 3.22978 17.8677 3.19773 18.0034L2.97237 18.9635C2.87125 19.3933 3.09558 19.8336 3.50272 20.0049L4.41199 20.3866C4.56456 20.4505 4.69665 20.5551 4.79386 20.689C4.89107 20.8228 4.94968 20.9808 4.96329 21.1457L5.04559 22.1284C5.06349 22.3416 5.15631 22.5416 5.30759 22.6929C5.45887 22.8441 5.65883 22.937 5.87202 22.9549L6.85479 23.0372C7.01966 23.0508 7.17762 23.1094 7.31146 23.2066C7.44531 23.3038 7.5499 23.4359 7.61384 23.5885L7.99556 24.4977C8.16683 24.9049 8.60706 25.1291 9.0369 25.0281L9.99703 24.8027C10.1581 24.7649 10.3265 24.7719 10.4839 24.823C10.6413 24.8742 10.7816 24.9674 10.8897 25.0927L11.5333 25.8396C11.8222 26.1738 12.31 26.2511 12.6878 26.0224L13.5314 25.5109C13.6728 25.4253 13.835 25.38 14.0004 25.38C14.1658 25.38 14.328 25.4253 14.4694 25.5109L15.313 26.0224C15.6908 26.2511 16.1786 26.1738 16.4675 25.8396L17.1111 25.0927C17.2192 24.9674 17.3595 24.8742 17.5169 24.823C17.6743 24.7719 17.8427 24.7649 18.0038 24.8027L18.9639 25.0281C19.3937 25.1292 19.834 24.9049 20.0052 24.4977L20.3869 23.5885C20.4509 23.4359 20.5555 23.3038 20.6893 23.2066C20.8232 23.1094 20.9811 23.0508 21.146 23.0372L22.1288 22.9549C22.342 22.937 22.5419 22.8441 22.6932 22.6929C22.8445 22.5416 22.9373 22.3416 22.9552 22.1284L23.0375 21.1457C23.0511 20.9808 23.1097 20.8228 23.2069 20.689C23.3041 20.5551 23.4362 20.4505 23.5888 20.3866L24.4981 20.0049C24.9052 19.8336 25.1295 19.3934 25.0284 18.9635L24.8031 18.0034C24.771 17.8677 24.771 17.7264 24.8031 17.5908" stroke="#475569" stroke-width="0.8203" stroke-miterlimit="10" stroke-linecap="round" stroke-linejoin="round"/>
<path d="M10.938 22.2945C11.8923 22.6466 12.9237 22.8391 13.9999 22.8391C17.6027 22.8391 20.7023 20.6834 22.0788 17.5909M5.92107 17.5909C6.62598 19.1746 7.7826 20.5128 9.22797 21.4413M22.0788 10.4094C21.4603 9.01982 20.494 7.82 19.2909 6.91931M5.92107 10.4094C7.29753 7.31688 10.3972 5.16113 13.9999 5.16113C15.2998 5.16113 16.5341 5.44168 17.6459 5.94589M5.3853 12.7203C5.3853 12.7203 4.80716 12.2343 4.12532 12.4397C3.49927 12.6283 3.41172 13.3501 3.86463 13.6454C3.86463 13.6454 4.30907 13.8437 4.80202 14.0255C5.98861 14.4632 5.47745 15.6112 4.52224 15.6112C4.0439 15.6112 3.64244 15.4016 3.39941 15.1335M7.16175 15.6112L8.37163 12.4345C8.39635 12.374 8.48194 12.3739 8.50676 12.4343L9.70566 15.6112M7.53908 14.82H9.33445M20.3069 12.3891V15.6112H21.4362M24.6004 12.3891H23.2427V15.6112H24.6004M24.5003 14.0001H23.2427M16.7229 14.2117V15.6112M11.5175 15.586L12.0839 12.4483C12.098 12.3748 12.2005 12.368 12.2244 12.4389L13.1457 15.5615C13.168 15.628 13.2623 15.6276 13.2839 15.5608L14.1737 12.4394C14.1968 12.3682 14.2993 12.374 14.3143 12.4473L14.9141 15.586M18.4948 13.2983C18.4948 13.8005 18.0821 14.2076 17.5944 14.2076C17.3525 14.2076 16.7229 14.2116 16.7229 14.2116V12.3891H17.5944C18.0821 12.3891 18.4948 12.7962 18.4948 13.2983Z" stroke="#475569" stroke-width="0.8203" stroke-miterlimit="10" stroke-linecap="round" stroke-linejoin="round"/>
<path d="M10.2917 10.4092H27.0368C27.4086 10.4092 27.6744 10.769 27.565 11.1239L26.7797 13.6751C26.7146 13.8867 26.7146 14.1131 26.7797 14.3247L27.565 16.8759C27.6744 17.2308 27.4086 17.5906 27.0368 17.5906H0.963251C0.591382 17.5906 0.325605 17.2308 0.434978 16.8759L1.22028 14.3247C1.28536 14.1131 1.28536 13.8867 1.22028 13.6751L0.434978 11.1239C0.325605 10.769 0.591382 10.4092 0.963251 10.4092H8.37767" stroke="#475569" stroke-width="0.8203" stroke-miterlimit="10" stroke-linecap="round" stroke-linejoin="round"/>
</svg>
