<svg width="84" height="83" viewBox="0 0 84 83" fill="none" xmlns="http://www.w3.org/2000/svg">
<rect x="0.5" width="83" height="83" rx="41.5" fill="#E2E8F0"/>
<path d="M58.445 21.3333H53.055C51.46 21.3333 50.2867 21.9933 49.755 23.1667C49.4617 23.6983 49.3333 24.3217 49.3333 25.055V30.445C49.3333 32.7733 50.7267 34.1667 53.055 34.1667H58.445C59.1783 34.1667 59.8017 34.0383 60.3333 33.745C61.5067 33.2133 62.1667 32.04 62.1667 30.445V25.055C62.1667 22.7267 60.7733 21.3333 58.445 21.3333ZM60.1683 28.5383C59.985 28.7217 59.71 28.85 59.4167 28.8683H56.8317V29.8033L56.85 31.4167C56.8317 31.7283 56.7217 31.985 56.5017 32.205C56.3183 32.3883 56.0433 32.5167 55.75 32.5167C55.145 32.5167 54.65 32.0217 54.65 31.4167V28.85L52.0833 28.8683C51.4783 28.8683 50.9833 28.355 50.9833 27.75C50.9833 27.145 51.4783 26.65 52.0833 26.65L53.6967 26.6683H54.65V24.1017C54.65 23.4967 55.145 22.9833 55.75 22.9833C56.355 22.9833 56.85 23.4967 56.85 24.1017L56.8317 25.4033V26.65H59.4167C60.0217 26.65 60.5167 27.145 60.5167 27.75C60.4983 28.0617 60.37 28.3183 60.1683 28.5383Z" fill="#286AB0"/>
<path d="M36.5 38.53C38.9098 38.53 40.8633 36.5765 40.8633 34.1667C40.8633 31.7569 38.9098 29.8033 36.5 29.8033C34.0902 29.8033 32.1367 31.7569 32.1367 34.1667C32.1367 36.5765 34.0902 38.53 36.5 38.53Z" fill="#286AB0"/>
<path d="M58.445 34.1667H57.5833V42.6183L57.345 42.4167C55.915 41.1883 53.605 41.1883 52.175 42.4167L44.5483 48.9617C43.1183 50.19 40.8083 50.19 39.3783 48.9617L38.755 48.4483C37.4533 47.3117 35.3817 47.2017 33.915 48.1917L27.0583 52.7933C26.655 51.7667 26.4167 50.575 26.4167 49.1817V33.8183C26.4167 28.6483 29.1483 25.9167 34.3183 25.9167H49.3333V25.055C49.3333 24.3217 49.4617 23.6983 49.755 23.1667H34.3183C27.645 23.1667 23.6667 27.145 23.6667 33.8183V49.1817C23.6667 51.18 24.015 52.9217 24.6933 54.3883C26.27 57.8717 29.6433 59.8333 34.3183 59.8333H49.6817C56.355 59.8333 60.3333 55.855 60.3333 49.1817V33.745C59.8017 34.0383 59.1783 34.1667 58.445 34.1667Z" fill="#286AB0"/>
</svg>
