<svg width="32" height="32" viewBox="0 0 32 32" fill="none" xmlns="http://www.w3.org/2000/svg">
<rect width="32" height="32" rx="16" fill="white"/>
<path d="M18.8337 23.0003C19.478 23.0003 20.0003 22.478 20.0003 21.8337C20.0003 21.1893 19.478 20.667 18.8337 20.667C18.1893 20.667 17.667 21.1893 17.667 21.8337C17.667 22.478 18.1893 23.0003 18.8337 23.0003Z" fill="#286AB0"/>
<path d="M13.4997 23.0003C14.144 23.0003 14.6663 22.478 14.6663 21.8337C14.6663 21.1893 14.144 20.667 13.4997 20.667C12.8553 20.667 12.333 21.1893 12.333 21.8337C12.333 22.478 12.8553 23.0003 13.4997 23.0003Z" fill="#286AB0"/>
<path d="M11.2263 10.6263L11.093 12.2597C11.0663 12.573 11.313 12.833 11.6263 12.833H21.833C22.113 12.833 22.3463 12.6197 22.3663 12.3397C22.453 11.1597 21.553 10.1997 20.373 10.1997H12.1797C12.113 9.90634 11.9797 9.62634 11.773 9.39301C11.4397 9.03967 10.973 8.83301 10.493 8.83301H9.33301C9.05967 8.83301 8.83301 9.05967 8.83301 9.33301C8.83301 9.60634 9.05967 9.83301 9.33301 9.83301H10.493C10.6997 9.83301 10.893 9.91967 11.033 10.0663C11.173 10.2197 11.2397 10.4197 11.2263 10.6263Z" fill="#286AB0"/>
<path d="M21.6737 13.833H11.447C11.167 13.833 10.9404 14.0463 10.9137 14.3197L10.6737 17.2197C10.5804 18.3597 11.4737 19.333 12.6137 19.333H20.027C21.027 19.333 21.907 18.513 21.9804 17.513L22.2004 14.3997C22.227 14.093 21.987 13.833 21.6737 13.833Z" fill="#286AB0"/>
</svg>
