<svg width="32" height="32" viewBox="0 0 32 32" fill="none" xmlns="http://www.w3.org/2000/svg">
<rect width="32" height="32" rx="16" fill="white"/>
<path d="M20.1263 19.833H13.0263C12.3663 19.833 11.733 19.553 11.2863 19.0663C10.8397 18.5797 10.613 17.9263 10.6663 17.2663L11.2197 10.6263C11.2397 10.4197 11.1663 10.2197 11.0263 10.0663C10.8863 9.91301 10.693 9.83301 10.4863 9.83301H9.33301C9.05967 9.83301 8.83301 9.60634 8.83301 9.33301C8.83301 9.05967 9.05967 8.83301 9.33301 8.83301H10.493C10.9797 8.83301 11.4397 9.03967 11.7663 9.39301C11.9463 9.59301 12.0797 9.82634 12.153 10.0863H20.4797C21.153 10.0863 21.773 10.353 22.2263 10.833C22.673 11.3197 22.8997 11.953 22.8463 12.6263L22.4863 17.6263C22.413 18.8463 21.3463 19.833 20.1263 19.833ZM12.1863 11.0797L11.6663 17.3463C11.633 17.733 11.7597 18.0997 12.0197 18.3863C12.2797 18.673 12.6397 18.8263 13.0263 18.8263H20.1263C20.8197 18.8263 21.4463 18.2397 21.4997 17.5463L21.8597 12.5463C21.8863 12.153 21.7597 11.7797 21.4997 11.5063C21.2397 11.2263 20.8797 11.073 20.4863 11.073H12.1863V11.0797Z" fill="#334155"/>
<path d="M18.8333 23.1667C18.1 23.1667 17.5 22.5667 17.5 21.8333C17.5 21.1 18.1 20.5 18.8333 20.5C19.5667 20.5 20.1667 21.1 20.1667 21.8333C20.1667 22.5667 19.5667 23.1667 18.8333 23.1667ZM18.8333 21.5C18.6467 21.5 18.5 21.6467 18.5 21.8333C18.5 22.02 18.6467 22.1667 18.8333 22.1667C19.02 22.1667 19.1667 22.02 19.1667 21.8333C19.1667 21.6467 19.02 21.5 18.8333 21.5Z" fill="#334155"/>
<path d="M13.5003 23.1667C12.767 23.1667 12.167 22.5667 12.167 21.8333C12.167 21.1 12.767 20.5 13.5003 20.5C14.2337 20.5 14.8337 21.1 14.8337 21.8333C14.8337 22.5667 14.2337 23.1667 13.5003 23.1667ZM13.5003 21.5C13.3137 21.5 13.167 21.6467 13.167 21.8333C13.167 22.02 13.3137 22.1667 13.5003 22.1667C13.687 22.1667 13.8337 22.02 13.8337 21.8333C13.8337 21.6467 13.687 21.5 13.5003 21.5Z" fill="#334155"/>
<path d="M22 13.833H14C13.7267 13.833 13.5 13.6063 13.5 13.333C13.5 13.0597 13.7267 12.833 14 12.833H22C22.2733 12.833 22.5 13.0597 22.5 13.333C22.5 13.6063 22.2733 13.833 22 13.833Z" fill="#334155"/>
</svg>
