<svg width="50" height="51" viewBox="0 0 50 51" fill="none" xmlns="http://www.w3.org/2000/svg">
<rect y="0.428589" width="50" height="50" rx="25" fill="#CBD5E1"/>
<path d="M31 19.4286C30.39 19.4286 29.83 19.0786 29.55 18.5386L28.83 17.0886C28.37 16.1786 27.17 15.4286 26.15 15.4286H23.86C22.83 15.4286 21.63 16.1786 21.17 17.0886L20.45 18.5386C20.17 19.0786 19.61 19.4286 19 19.4286C16.83 19.4286 15.11 21.2586 15.25 23.4186L15.77 31.6786C15.89 33.7386 17 35.4286 19.76 35.4286H30.24C33 35.4286 34.1 33.7386 34.23 31.6786L34.75 23.4186C34.89 21.2586 33.17 19.4286 31 19.4286ZM23.5 20.6786H26.5C26.91 20.6786 27.25 21.0186 27.25 21.4286C27.25 21.8386 26.91 22.1786 26.5 22.1786H23.5C23.09 22.1786 22.75 21.8386 22.75 21.4286C22.75 21.0186 23.09 20.6786 23.5 20.6786ZM25 31.5486C23.14 31.5486 21.62 30.0386 21.62 28.1686C21.62 26.2986 23.13 24.7886 25 24.7886C26.87 24.7886 28.38 26.2986 28.38 28.1686C28.38 30.0386 26.86 31.5486 25 31.5486Z" fill="#286AB0"/>
</svg>
