<svg width="50" height="51" viewBox="0 0 50 51" fill="none" xmlns="http://www.w3.org/2000/svg">
<rect y="0.428589" width="50" height="50" rx="25" fill="#CBD5E1"/>
<path d="M15.58 32.4386L15.56 32.4586C15.29 31.8686 15.12 31.1986 15.05 30.4586C15.12 31.1886 15.31 31.8486 15.58 32.4386Z" fill="#286AB0"/>
<path d="M22 23.8086C23.3144 23.8086 24.38 22.743 24.38 21.4286C24.38 20.1141 23.3144 19.0486 22 19.0486C20.6856 19.0486 19.62 20.1141 19.62 21.4286C19.62 22.743 20.6856 23.8086 22 23.8086Z" fill="#286AB0"/>
<path d="M29.19 15.4286H20.81C17.17 15.4286 15 17.5986 15 21.2386V29.6186C15 30.7086 15.19 31.6586 15.56 32.4586C16.42 34.3586 18.26 35.4286 20.81 35.4286H29.19C32.83 35.4286 35 33.2586 35 29.6186V27.3286V21.2386C35 17.5986 32.83 15.4286 29.19 15.4286ZM33.37 25.9286C32.59 25.2586 31.33 25.2586 30.55 25.9286L26.39 29.4986C25.61 30.1686 24.35 30.1686 23.57 29.4986L23.23 29.2186C22.52 28.5986 21.39 28.5386 20.59 29.0786L16.85 31.5886C16.63 31.0286 16.5 30.3786 16.5 29.6186V21.2386C16.5 18.4186 17.99 16.9286 20.81 16.9286H29.19C32.01 16.9286 33.5 18.4186 33.5 21.2386V26.0386L33.37 25.9286Z" fill="#286AB0"/>
</svg>
