<svg width="375" height="375" viewBox="0 0 375 375" fill="none" xmlns="http://www.w3.org/2000/svg">
<path d="M375 286.8H0V286.987H375V286.8Z" fill="#EBEBEB"/>
<path d="M337.425 298.867H312.585V299.055H337.425V298.867Z" fill="#EBEBEB"/>
<path d="M248.415 300.907H241.897V301.095H248.415V300.907Z" fill="#EBEBEB"/>
<path d="M311.835 291.907H297.442V292.095H311.835V291.907Z" fill="#EBEBEB"/>
<path d="M71.7372 293.168H39.3447V293.355H71.7372V293.168Z" fill="#EBEBEB"/>
<path d="M83.1674 293.168H78.4199V293.355H83.1674V293.168Z" fill="#EBEBEB"/>
<path d="M168.863 296.332H98.6025V296.52H168.863V296.332Z" fill="#EBEBEB"/>
<path d="M177.75 253.35H32.9322C31.7977 253.348 30.7104 252.896 29.9089 252.093C29.1074 251.29 28.6572 250.202 28.6572 249.068V45.495C28.6671 44.367 29.1216 43.2885 29.9221 42.4937C30.7225 41.6988 31.8042 41.2519 32.9322 41.25H177.75C178.886 41.25 179.975 41.7012 180.778 42.5043C181.581 43.3074 182.032 44.3967 182.032 45.5325V249.068C182.032 250.203 181.581 251.293 180.778 252.096C179.975 252.899 178.886 253.35 177.75 253.35ZM32.9322 41.4C31.8475 41.402 30.8078 41.8343 30.0415 42.602C29.2751 43.3698 28.8447 44.4102 28.8447 45.495V249.068C28.8447 250.152 29.2751 251.193 30.0415 251.96C30.8078 252.728 31.8475 253.161 32.9322 253.162H177.75C178.835 253.161 179.876 252.728 180.643 251.961C181.411 251.193 181.843 250.153 181.845 249.068V45.495C181.843 44.4095 181.411 43.3691 180.643 42.6016C179.876 41.8341 178.835 41.402 177.75 41.4H32.9322Z" fill="#EBEBEB"/>
<path d="M339.982 253.35H195.157C194.022 253.348 192.934 252.896 192.132 252.094C191.329 251.291 190.877 250.203 190.875 249.068V45.495C190.887 44.3663 191.343 43.2878 192.145 42.4932C192.946 41.6986 194.029 41.2519 195.157 41.25H339.982C341.109 41.2539 342.189 41.7017 342.988 42.4963C343.787 43.2909 344.24 44.3683 344.25 45.495V249.068C344.25 250.201 343.801 251.288 343.001 252.09C342.201 252.893 341.116 253.346 339.982 253.35ZM195.157 41.4C194.072 41.402 193.032 41.8341 192.264 42.6016C191.497 43.3691 191.064 44.4095 191.062 45.495V249.068C191.064 250.153 191.497 251.193 192.264 251.961C193.032 252.728 194.072 253.161 195.157 253.162H339.982C341.068 253.161 342.108 252.728 342.876 251.961C343.643 251.193 344.076 250.153 344.077 249.068V45.495C344.076 44.4095 343.643 43.3691 342.876 42.6016C342.108 41.8341 341.068 41.402 339.982 41.4H195.157Z" fill="#EBEBEB"/>
<path d="M149.423 231.593H143.1H138.93L150.615 241.268H152.76H154.673L151.943 237.12L159.908 241.268H161.828H164.093L149.423 231.593Z" fill="#E0E0E0"/>
<path d="M66.5625 241.268H70.7475L80.04 236.43L75.9825 241.268H80.04L91.725 231.593H81.2325L66.5625 241.268Z" fill="#E0E0E0"/>
<path d="M77.8875 241.268L87.555 231.593H81.2325L66.5625 241.268H68.8275L80.04 235.103L75.9825 241.268H77.8875Z" fill="#F0F0F0"/>
<path d="M45.1948 241.268V287.153H186.51V241.268H45.1948ZM184.2 259.268H70.7473V244.268H184.2V259.268Z" fill="#E0E0E0"/>
<path d="M67.6572 241.268V287.153H186.51V241.268H67.6572ZM184.2 259.268H70.7472V244.268H184.2V259.268Z" fill="#EBEBEB"/>
<path d="M184.2 244.245H163.515V259.238H184.2V244.245Z" fill="#E0E0E0"/>
<path d="M100.703 251.737H70.7476V259.237H100.703V251.737Z" fill="#E0E0E0"/>
<path d="M121.852 254.782H102.585V259.237H121.852V254.782Z" fill="#E0E0E0"/>
<path d="M149.025 250.125H126.308V259.237H149.025V250.125Z" fill="#E0E0E0"/>
<path d="M93.3001 262.5L92.7526 264.293H85.3801L84.8326 262.5H70.7476V282.412H107.385V262.5H93.3001Z" fill="#E0E0E0"/>
<path d="M131.655 262.5L131.108 264.293H123.743L123.195 262.5H109.103V282.412H145.748V262.5H131.655Z" fill="#E0E0E0"/>
<path d="M170.017 262.5L169.47 264.293H162.105L161.55 262.5H147.465V282.412H184.102V262.5H170.017Z" fill="#E0E0E0"/>
<path d="M161.617 170.857H64.2749C62.8128 170.857 61.6274 172.043 61.6274 173.505V230.227C61.6274 231.69 62.8128 232.875 64.2749 232.875H161.617C163.08 232.875 164.265 231.69 164.265 230.227V173.505C164.265 172.043 163.08 170.857 161.617 170.857Z" fill="#E0E0E0"/>
<path d="M164.032 170.857H66.69C65.2278 170.857 64.0425 172.043 64.0425 173.505V230.227C64.0425 231.69 65.2278 232.875 66.69 232.875H164.032C165.495 232.875 166.68 231.69 166.68 230.227V173.505C166.68 172.043 165.495 170.857 164.032 170.857Z" fill="#E6E6E6"/>
<path d="M163.657 229.861V173.873H67.0497V229.861H163.657Z" fill="#F0F0F0"/>
<path d="M282.72 102.417C290.326 100.494 294.933 92.7695 293.01 85.1636C291.087 77.5578 283.362 72.9511 275.756 74.8743C268.15 76.7974 263.543 84.5222 265.467 92.128C267.39 99.7339 275.114 104.341 282.72 102.417Z" fill="#E0E0E0"/>
<path d="M290.974 91.395C292.506 84.9045 288.486 78.401 281.995 76.8691C275.505 75.3372 269.001 79.357 267.47 85.8475C265.938 92.338 269.957 98.8415 276.448 100.373C282.938 101.905 289.442 97.8855 290.974 91.395Z" fill="#F0F0F0"/>
<path d="M278.67 80.3477V88.7852L273.075 85.6202" fill="#F0F0F0"/>
<path d="M278.67 89.5352C278.539 89.5361 278.409 89.5025 278.295 89.4377L272.7 86.2502C272.528 86.1513 272.403 85.9885 272.351 85.7974C272.299 85.6063 272.325 85.4024 272.423 85.2302C272.52 85.0574 272.682 84.9303 272.874 84.8769C273.065 84.8235 273.269 84.848 273.443 84.9452L277.943 87.4802V80.3252C277.943 80.1263 278.022 79.9355 278.162 79.7949C278.303 79.6542 278.494 79.5752 278.693 79.5752C278.891 79.5752 279.082 79.6542 279.223 79.7949C279.363 79.9355 279.443 80.1263 279.443 80.3252V88.7627C279.443 88.9616 279.363 89.1524 279.223 89.293C279.082 89.4337 278.891 89.5127 278.693 89.5127L278.67 89.5352Z" fill="#E0E0E0"/>
<path d="M85.7775 88.6802C85.7775 88.6802 85.0875 84.1802 88.3875 81.2627C91.6875 78.3452 91.3875 76.6427 90.45 76.4177C89.5125 76.1927 88.6425 79.0877 87.195 79.8827C87.195 79.8827 87.1425 75.7577 88.62 74.2352C90.0975 72.7127 90.87 68.7977 89.46 68.7302C88.05 68.6627 87.915 71.0552 87.63 72.7502C87.2312 74.204 86.6061 75.5859 85.7775 76.8452C85.7775 76.8452 85.47 73.1477 84.5175 71.5952C83.565 70.0427 86.1075 66.6002 85.125 65.0777C84.1425 63.5552 82.41 66.4577 82.5525 69.7127C82.695 72.9677 84.8775 76.4627 84.3675 79.8527C84.3675 79.8527 83.4075 77.4677 82.545 77.2502C81.6825 77.0327 80.82 75.4502 80.235 74.8652C79.65 74.2802 78.9375 76.3052 80.235 78.1877C81.5325 80.0702 84.8775 85.1102 84.3675 89.1827L85.7775 88.6802Z" fill="#E6E6E6"/>
<path d="M87.7502 86.625L88.8227 93.375C88.9021 93.8666 88.8736 94.3695 88.7393 94.849C88.605 95.3285 88.368 95.7731 88.0449 96.1519C87.7217 96.5307 87.32 96.8347 86.8677 97.0429C86.4153 97.2511 85.9231 97.3584 85.4252 97.3575H84.2777C83.7795 97.3582 83.2871 97.2509 82.8345 97.0427C82.3819 96.8346 81.9798 96.5308 81.6561 96.1521C81.3323 95.7735 81.0946 95.3291 80.9594 94.8496C80.8241 94.3701 80.7945 93.867 80.8727 93.375L81.9527 86.625H87.7502Z" fill="#E6E6E6"/>
<path d="M71.4224 98.7979L147.712 98.7979V94.8753L71.4224 94.8753V98.7979Z" fill="#E0E0E0"/>
<path d="M140.843 94.8828H144.203V80.4378H140.843V94.8828Z" fill="#EBEBEB"/>
<path d="M124.59 94.8828H127.95V80.4378H124.59V94.8828Z" fill="#EBEBEB"/>
<path d="M103.69 94.3111L107.001 94.8818L109.456 80.6394L106.145 80.0686L103.69 94.3111Z" fill="#EBEBEB"/>
<path d="M136.672 94.8828H140.032V82.3353H136.672V94.8828Z" fill="#EBEBEB"/>
<path d="M128.955 94.8828H132.315V82.3353H128.955V94.8828Z" fill="#EBEBEB"/>
<path d="M109.448 94.8828H112.808V82.3353H109.448V94.8828Z" fill="#EBEBEB"/>
<path d="M117.461 94.146L120.741 94.875L123.463 82.6263L120.183 81.8974L117.461 94.146Z" fill="#EBEBEB"/>
<path d="M133.77 94.8828H135.45V79.7178H133.77V94.8828Z" fill="#EBEBEB"/>
<path d="M113.782 94.8828H115.462V79.7178H113.782V94.8828Z" fill="#EBEBEB"/>
<path d="M147.712 124.14H71.4224V128.062H147.712V124.14Z" fill="#E0E0E0"/>
<path d="M78.2926 109.695H74.9326V124.148H78.2926V109.695Z" fill="#EBEBEB"/>
<path d="M94.5451 109.695H91.1851V124.148H94.5451V109.695Z" fill="#EBEBEB"/>
<path d="M112.995 109.33L109.684 109.9L112.139 124.143L115.45 123.572L112.995 109.33Z" fill="#EBEBEB"/>
<path d="M82.4625 111.6H79.1025V124.147H82.4625V111.6Z" fill="#EBEBEB"/>
<path d="M90.1876 111.6H86.8276V124.147H90.1876V111.6Z" fill="#EBEBEB"/>
<path d="M109.68 111.6H106.32V124.147H109.68V111.6Z" fill="#EBEBEB"/>
<path d="M98.9645 111.16L95.6846 111.889L98.4068 124.137L101.687 123.408L98.9645 111.16Z" fill="#EBEBEB"/>
<path d="M85.3651 108.975H83.6851V124.14H85.3651V108.975Z" fill="#EBEBEB"/>
<path d="M105.36 108.975H103.68V124.14H105.36V108.975Z" fill="#EBEBEB"/>
<path d="M140.4 112.71H124.02V124.012H140.4V112.71Z" fill="#EBEBEB"/>
<path d="M187.5 320.669C267.812 320.669 332.918 316.868 332.918 312.179C332.918 307.491 267.812 303.689 187.5 303.689C107.188 303.689 42.0825 307.491 42.0825 312.179C42.0825 316.868 107.188 320.669 187.5 320.669Z" fill="#F5F5F5"/>
<path d="M67.9123 284.355C67.9123 284.13 67.1623 261.855 63.5548 258.367C60.0898 255.007 56.0998 258.247 55.9273 258.367L55.4473 257.79C55.4923 257.752 60.1273 253.972 64.0723 257.79C67.8898 261.495 68.6323 283.357 68.6623 284.287L67.9123 284.355Z" fill="#286AB0"/>
<path d="M68.2498 288.75C68.1448 287.655 65.7673 261.945 75.4648 250.808L76.0348 251.303C66.5248 262.185 68.9473 288.405 68.9998 288.668L68.2498 288.75Z" fill="#286AB0"/>
<path d="M68.0476 285.938L67.2976 285.885C67.2976 285.585 69.1951 255.803 62.1226 249.308L62.6326 248.753C69.9601 255.495 68.1301 284.693 68.0476 285.938Z" fill="#286AB0"/>
<path d="M69 285.915H68.25C68.25 285.09 68.4825 265.717 74.0175 262.545C74.5505 262.201 75.1582 261.989 75.7897 261.928C76.4212 261.866 77.0582 261.957 77.6475 262.192C81.0075 263.587 82.665 269.535 82.7325 269.782L81.9825 269.985C81.9825 269.925 80.355 264.135 77.34 262.89C76.8529 262.692 76.3247 262.617 75.8017 262.67C75.2788 262.724 74.7769 262.905 74.34 263.197C69.2025 266.145 69 285.75 69 285.915Z" fill="#286AB0"/>
<path d="M66.8325 285.93L66.0825 285.885C66.0825 285.735 66.9075 270.653 62.85 265.35C61.875 264.09 60.8325 263.483 59.73 263.565C57.105 263.745 54.885 267.615 54.87 267.653L54.21 267.285C54.315 267.113 56.6475 263.025 59.6775 262.785C61.0425 262.688 62.31 263.385 63.4275 264.87C67.68 270.42 66.87 285.3 66.8325 285.93Z" fill="#286AB0"/>
<path d="M67.5449 288C67.4399 286.5 64.8824 252 69.3974 245.865L69.9974 246.315C65.6474 252.203 68.2724 287.565 68.2949 287.94L67.5449 288Z" fill="#286AB0"/>
<path d="M78.8099 265.77C78.8099 265.77 76.1174 266.768 76.9199 269.115C77.7224 271.463 86.2499 275.325 86.2499 275.325C86.2499 275.325 89.8199 272.048 86.5424 266.723C83.2649 261.398 78.8849 264.09 78.8099 265.77Z" fill="#286AB0"/>
<path opacity="0.2" d="M78.8099 265.77C78.8099 265.77 76.1174 266.768 76.9199 269.115C77.7224 271.463 86.2499 275.325 86.2499 275.325C86.2499 275.325 89.8199 272.048 86.5424 266.723C83.2649 261.398 78.8849 264.09 78.8099 265.77Z" fill="white"/>
<path d="M67.0874 261.3C67.0874 261.3 69.9599 261.18 70.0874 263.655C70.2149 266.13 63.8999 273 63.8999 273C63.8999 273 59.3399 271.358 60.3149 265.178C61.2899 258.998 66.3674 259.778 67.0874 261.3Z" fill="#286AB0"/>
<path opacity="0.2" d="M67.0874 261.3C67.0874 261.3 69.9599 261.18 70.0874 263.655C70.2149 266.13 63.8999 273 63.8999 273C63.8999 273 59.3399 271.358 60.3149 265.178C61.2899 258.998 66.3674 259.778 67.0874 261.3Z" fill="white"/>
<path d="M64.65 249.45C64.65 249.45 66.57 249.24 66.4125 248.077C66.255 246.915 58.965 243.907 54.6675 248.76C54.6675 248.76 57.42 253.492 61.4175 253.552C65.415 253.612 64.65 249.45 64.65 249.45Z" fill="#286AB0"/>
<path opacity="0.2" d="M64.65 249.45C64.65 249.45 66.57 249.24 66.4125 248.077C66.255 246.915 58.965 243.907 54.6675 248.76C54.6675 248.76 57.42 253.492 61.4175 253.552C65.415 253.612 64.65 249.45 64.65 249.45Z" fill="white"/>
<path d="M68.2499 246.615C68.2499 246.615 66.5174 247.455 65.9999 246.383C65.4824 245.31 70.1174 238.883 76.3349 240.75C76.3349 240.75 76.4999 246.225 73.1549 248.385C69.8099 250.545 68.2499 246.615 68.2499 246.615Z" fill="#286AB0"/>
<path opacity="0.2" d="M68.2499 246.615C68.2499 246.615 66.5174 247.455 65.9999 246.383C65.4824 245.31 70.1174 238.883 76.3349 240.75C76.3349 240.75 76.4999 246.225 73.1549 248.385C69.8099 250.545 68.2499 246.615 68.2499 246.615Z" fill="white"/>
<path d="M59.1523 264.825C59.1523 264.825 60.4723 263.76 59.0473 263.235C57.6223 262.71 50.6173 262.868 50.5498 269.798C50.5498 269.798 58.7023 271.155 59.7073 268.515C60.7123 265.875 59.1523 264.825 59.1523 264.825Z" fill="#286AB0"/>
<path opacity="0.2" d="M59.1523 264.825C59.1523 264.825 60.4723 263.76 59.0473 263.235C57.6223 262.71 50.6173 262.868 50.5498 269.798C50.5498 269.798 58.7023 271.155 59.7073 268.515C60.7123 265.875 59.1523 264.825 59.1523 264.825Z" fill="white"/>
<path d="M75.7501 249.278C75.7501 249.278 74.4226 248.206 75.8551 247.688C77.2876 247.171 84.2776 247.313 84.3526 254.251C84.3526 254.251 76.2001 255.601 75.1876 252.961C74.1751 250.321 75.7501 249.278 75.7501 249.278Z" fill="#286AB0"/>
<path opacity="0.2" d="M75.7501 249.278C75.7501 249.278 74.4226 248.206 75.8551 247.688C77.2876 247.171 84.2776 247.313 84.3526 254.251C84.3526 254.251 76.2001 255.601 75.1876 252.961C74.1751 250.321 75.7501 249.278 75.7501 249.278Z" fill="white"/>
<path d="M71.4674 254.857C71.4674 254.857 71.3474 253.56 72.3974 254.07C73.4474 254.58 77.0924 258.517 73.3124 262.252C73.3124 262.252 68.2199 258.502 69.1349 256.515C70.0499 254.527 71.4674 254.857 71.4674 254.857Z" fill="#286AB0"/>
<path opacity="0.2" d="M71.4674 254.857C71.4674 254.857 71.3474 253.56 72.3974 254.07C73.4474 254.58 77.0924 258.517 73.3124 262.252C73.3124 262.252 68.2199 258.502 69.1349 256.515C70.0499 254.527 71.4674 254.857 71.4674 254.857Z" fill="white"/>
<path d="M57.9674 256.71C57.9674 256.71 58.7624 255.675 57.5999 255.548C56.4374 255.42 51.2624 256.8 52.4999 261.975C52.4999 261.975 58.8148 261.503 59.0848 259.35C59.3548 257.198 57.9674 256.71 57.9674 256.71Z" fill="#286AB0"/>
<path opacity="0.2" d="M57.9674 256.71C57.9674 256.71 58.7624 255.675 57.5999 255.548C56.4374 255.42 51.2624 256.8 52.4999 261.975C52.4999 261.975 58.8148 261.503 59.0848 259.35C59.3548 257.198 57.9674 256.71 57.9674 256.71Z" fill="white"/>
<path d="M79.3199 305.13H57.6374L55.2974 281.393H81.6524L79.3199 305.13Z" fill="#286AB0"/>
<path opacity="0.5" d="M79.3199 305.13H57.6374L55.2974 281.393H81.6524L79.3199 305.13Z" fill="white"/>
<path d="M82.8151 278.775H54.1426V284.01H82.8151V278.775Z" fill="#286AB0"/>
<path opacity="0.2" d="M82.8151 278.775H54.1426V284.01H82.8151V278.775Z" fill="white"/>
<path d="M255.015 305.129L255.06 304.852L256.327 290.017H261.735L257.872 305.129" fill="#263238"/>
<path d="M305.055 305.129L305.01 304.852L303.735 290.017H298.335L302.197 305.129" fill="#263238"/>
<path d="M247.89 305.129L247.935 304.852L250.395 290.017H255.795L250.747 305.129" fill="#263238"/>
<path d="M312.18 305.129L312.127 304.852L309.675 290.017H304.275L309.322 305.129" fill="#263238"/>
<g opacity="0.2">
<path d="M247.89 305.129L247.935 304.852L250.395 290.017H255.795L250.747 305.129" fill="white"/>
<path d="M312.179 305.129L312.127 304.852L309.674 290.017H304.274L309.322 305.129" fill="white"/>
</g>
<path d="M312.585 201.217H247.492C245.844 201.217 244.507 202.553 244.507 204.202V290.339C244.507 291.988 245.844 293.324 247.492 293.324H312.585C314.233 293.324 315.57 291.988 315.57 290.339V204.202C315.57 202.553 314.233 201.217 312.585 201.217Z" fill="#286AB0"/>
<path opacity="0.4" d="M312.585 201.217H247.492C245.844 201.217 244.507 202.553 244.507 204.202V290.339C244.507 291.988 245.844 293.324 247.492 293.324H312.585C314.233 293.324 315.57 291.988 315.57 290.339V204.202C315.57 202.553 314.233 201.217 312.585 201.217Z" fill="white"/>
<path opacity="0.5" d="M312.667 221.302H247.402V254.549H312.667V221.302Z" fill="white"/>
<path opacity="0.5" d="M312.667 256.762H247.402V290.009H312.667V256.762Z" fill="white"/>
<path opacity="0.5" d="M312.667 204.524H247.402V219.082H312.667V204.524Z" fill="white"/>
<path opacity="0.5" d="M285.375 206.947H274.695C274.375 206.945 274.061 206.855 273.79 206.685C273.518 206.516 273.299 206.274 273.157 205.987L272.445 204.524H287.625L286.875 205.987C286.738 206.27 286.525 206.509 286.26 206.679C285.996 206.848 285.689 206.941 285.375 206.947Z" fill="black"/>
<path opacity="0.5" d="M285.375 223.717H274.695C274.374 223.717 274.06 223.627 273.788 223.457C273.517 223.287 273.298 223.045 273.157 222.757L272.445 221.302H287.625L286.875 222.757C286.739 223.041 286.527 223.281 286.262 223.451C285.997 223.62 285.689 223.713 285.375 223.717Z" fill="black"/>
<path opacity="0.5" d="M285.375 259.184H274.695C274.374 259.184 274.06 259.094 273.788 258.925C273.517 258.755 273.298 258.512 273.157 258.224L272.445 256.762H287.625L286.875 258.224C286.739 258.508 286.527 258.749 286.262 258.918C285.997 259.088 285.689 259.18 285.375 259.184Z" fill="black"/>
<path d="M299.017 191.055L304.657 201.217H297.637L299.017 191.055Z" fill="#286AB0"/>
<path opacity="0.2" d="M299.017 191.055L304.657 201.217H297.637L299.017 191.055Z" fill="black"/>
<path d="M300.9 201.217H287.625L291.78 184.02H305.055L300.9 201.217Z" fill="#286AB0"/>
<path opacity="0.5" d="M289.455 199.852L292.95 185.385H303.225L299.73 199.852H289.455Z" fill="white"/>
<path d="M262.057 193.387L258.765 201.217H267.57L262.057 193.387Z" fill="#286AB0"/>
<path d="M280.035 201.218H263.175L259.215 189H276.082L280.035 201.218Z" fill="#286AB0"/>
<path opacity="0.2" d="M280.035 201.218H263.175L259.215 189H276.082L280.035 201.218Z" fill="white"/>
<path opacity="0.5" d="M264.105 199.454L261.285 190.762H275.152L277.965 199.454H264.105Z" fill="white"/>
<path d="M204.923 109.342H97.1701C92.8623 109.342 89.3701 112.834 89.3701 117.142V308.414C89.3701 312.722 92.8623 316.214 97.1701 316.214H204.923C209.23 316.214 212.723 312.722 212.723 308.414V117.142C212.723 112.834 209.23 109.342 204.923 109.342Z" fill="#263238"/>
<path d="M208.56 116.775V308.385C208.56 308.784 208.48 309.18 208.325 309.549C208.171 309.917 207.943 310.251 207.658 310.53C207.372 310.81 207.033 311.029 206.661 311.176C206.29 311.323 205.892 311.394 205.493 311.385H96.2701C95.9066 311.39 95.5459 311.322 95.2094 311.184C94.873 311.046 94.5678 310.842 94.3122 310.584C94.0566 310.325 93.8557 310.018 93.7218 309.68C93.5878 309.342 93.5235 308.981 93.5326 308.617V116.527C93.5185 116.206 93.5683 115.886 93.679 115.584C93.7896 115.282 93.959 115.006 94.1773 114.77C94.3956 114.534 94.6586 114.344 94.9508 114.21C95.2431 114.077 95.559 114.003 95.8801 113.992H123.188C123.568 114 123.938 114.12 124.25 114.338C124.563 114.555 124.803 114.86 124.943 115.215L126.075 118.005C126.214 118.359 126.455 118.663 126.767 118.88C127.08 119.096 127.45 119.215 127.83 119.22H174.33C174.709 119.218 175.079 119.102 175.391 118.889C175.704 118.675 175.946 118.372 176.085 118.02L177.218 115.222C177.356 114.866 177.596 114.56 177.908 114.341C178.221 114.122 178.591 114.001 178.973 113.992H205.89C206.611 114.014 207.295 114.317 207.794 114.838C208.293 115.358 208.568 116.054 208.56 116.775Z" fill="#286AB0"/>
<path opacity="0.3" d="M208.56 116.775V308.385C208.56 308.784 208.48 309.18 208.325 309.549C208.171 309.917 207.943 310.251 207.658 310.53C207.372 310.81 207.033 311.029 206.661 311.176C206.29 311.323 205.892 311.394 205.493 311.385H96.2701C95.9066 311.39 95.5459 311.322 95.2094 311.184C94.873 311.046 94.5678 310.842 94.3122 310.584C94.0566 310.325 93.8557 310.018 93.7218 309.68C93.5878 309.342 93.5235 308.981 93.5326 308.617V116.527C93.5185 116.206 93.5683 115.886 93.679 115.584C93.7896 115.282 93.959 115.006 94.1773 114.77C94.3956 114.534 94.6586 114.344 94.9508 114.21C95.2431 114.077 95.559 114.003 95.8801 113.992H123.188C123.568 114 123.938 114.12 124.25 114.338C124.563 114.555 124.803 114.86 124.943 115.215L126.075 118.005C126.214 118.359 126.455 118.663 126.767 118.88C127.08 119.096 127.45 119.215 127.83 119.22H174.33C174.709 119.218 175.079 119.102 175.391 118.889C175.704 118.675 175.946 118.372 176.085 118.02L177.218 115.222C177.356 114.866 177.596 114.56 177.908 114.341C178.221 114.122 178.591 114.001 178.973 113.992H205.89C206.611 114.014 207.295 114.317 207.794 114.838C208.293 115.358 208.568 116.054 208.56 116.775Z" fill="black"/>
<path opacity="0.6" d="M208.56 126.899H93.5327V297.307H208.56V126.899Z" fill="white"/>
<path opacity="0.6" d="M106.215 122.316H107.633V120.419H106.215V122.316Z" fill="white"/>
<path opacity="0.6" d="M103.897 122.316H105.315V119.789H103.897V122.316Z" fill="white"/>
<path opacity="0.6" d="M101.58 122.316H102.998V119.159H101.58V122.316Z" fill="white"/>
<path opacity="0.6" d="M99.2627 122.316H100.68V118.529H99.2627V122.316Z" fill="white"/>
<path opacity="0.6" d="M195.54 119.729H194.7V121.627H195.54V119.729Z" fill="white"/>
<path opacity="0.6" d="M196.118 122.316H202.83V119.039H196.118V122.316Z" fill="white"/>
<path opacity="0.6" d="M151.028 114.262C151.028 114.575 150.935 114.881 150.761 115.141C150.587 115.402 150.34 115.604 150.051 115.724C149.762 115.844 149.444 115.875 149.137 115.814C148.83 115.753 148.548 115.603 148.326 115.381C148.105 115.16 147.954 114.878 147.893 114.571C147.832 114.264 147.863 113.946 147.983 113.657C148.103 113.367 148.306 113.12 148.566 112.946C148.826 112.773 149.132 112.68 149.445 112.68C149.653 112.679 149.86 112.719 150.052 112.798C150.245 112.877 150.419 112.994 150.567 113.141C150.714 113.288 150.83 113.463 150.909 113.655C150.989 113.848 151.029 114.054 151.028 114.262Z" fill="white"/>
<path opacity="0.6" d="M154.223 114.262C154.223 114.462 154.163 114.658 154.052 114.824C153.941 114.991 153.783 115.12 153.598 115.197C153.413 115.274 153.209 115.294 153.013 115.255C152.816 115.215 152.636 115.119 152.494 114.977C152.353 114.836 152.256 114.655 152.217 114.459C152.178 114.263 152.198 114.059 152.275 113.874C152.351 113.689 152.481 113.531 152.648 113.42C152.814 113.308 153.01 113.249 153.21 113.249C153.479 113.249 153.736 113.356 153.926 113.546C154.116 113.735 154.223 113.993 154.223 114.262Z" fill="white"/>
<path d="M208.56 126.899H93.5327V146.572H208.56V126.899Z" fill="#286AB0"/>
<path d="M203.678 138.344V136.844H202.343C202.257 136.463 202.104 136.1 201.893 135.771L202.838 134.826L201.75 133.739L200.805 134.684C200.476 134.475 200.113 134.326 199.733 134.241V132.906H198.233V134.249C197.853 134.335 197.49 134.484 197.16 134.691L196.215 133.746L195.15 134.819L196.095 135.764C195.883 136.092 195.731 136.455 195.645 136.836H194.31V138.336H195.645C195.732 138.715 195.885 139.075 196.095 139.401L195.15 140.346L196.215 141.419L197.16 140.474C197.491 140.68 197.853 140.832 198.233 140.924V142.251H199.733V140.924C200.112 140.833 200.475 140.681 200.805 140.474L201.75 141.419L202.815 140.346L201.87 139.401C202.081 139.075 202.233 138.715 202.32 138.336L203.678 138.344ZM198.998 138.981C198.72 138.981 198.448 138.899 198.218 138.744C197.987 138.59 197.807 138.37 197.701 138.114C197.595 137.857 197.568 137.575 197.623 137.302C197.677 137.03 197.812 136.78 198.009 136.584C198.205 136.389 198.456 136.256 198.729 136.202C199.001 136.149 199.283 136.178 199.54 136.285C199.796 136.392 200.014 136.573 200.167 136.805C200.321 137.037 200.402 137.309 200.4 137.586C200.4 137.77 200.364 137.952 200.293 138.122C200.223 138.292 200.119 138.446 199.989 138.575C199.859 138.705 199.704 138.808 199.534 138.877C199.364 138.947 199.181 138.982 198.998 138.981Z" fill="white"/>
<path d="M103.478 133.454L98.415 138.262H99.9825V141.712H106.973V138.262H108.533L103.478 133.454Z" fill="white"/>
<path opacity="0.4" d="M172.417 179.602C172.422 183.83 171.172 187.966 168.826 191.484C166.479 195.002 163.142 197.745 159.236 199.366C155.33 200.987 151.032 201.413 146.883 200.591C142.735 199.768 138.925 197.733 135.933 194.744C132.942 191.755 130.905 187.945 130.079 183.798C129.253 179.65 129.676 175.351 131.295 171.444C132.913 167.537 135.654 164.198 139.17 161.849C142.687 159.501 146.821 158.248 151.05 158.249C153.856 158.244 156.636 158.793 159.229 159.864C161.823 160.935 164.18 162.508 166.165 164.491C168.15 166.475 169.724 168.83 170.797 171.423C171.87 174.016 172.42 176.795 172.417 179.602Z" fill="black"/>
<path opacity="0.8" d="M167.205 193.597C165.198 195.913 162.717 197.77 159.93 199.043C157.143 200.316 154.114 200.975 151.05 200.975C147.986 200.975 144.957 200.316 142.17 199.043C139.383 197.77 136.902 195.913 134.895 193.597C135.669 190.821 137.144 188.292 139.179 186.252C141.214 184.212 143.739 182.73 146.513 181.949C145.03 180.974 143.901 179.546 143.294 177.878C142.687 176.21 142.634 174.391 143.143 172.69C143.652 170.99 144.696 169.499 146.12 168.439C147.544 167.379 149.271 166.807 151.046 166.807C152.821 166.807 154.549 167.379 155.973 168.439C157.397 169.499 158.441 170.99 158.95 172.69C159.459 174.391 159.406 176.21 158.799 177.878C158.192 179.546 157.063 180.974 155.58 181.949C158.354 182.731 160.88 184.213 162.916 186.253C164.951 188.293 166.428 190.822 167.205 193.597Z" fill="white"/>
<g opacity="0.5">
<path d="M110.925 213.659V214.049H108.638V210.899H110.888V211.289H109.118V212.249H110.7V212.632H109.118V213.652L110.925 213.659Z" fill="black"/>
<path d="M111.345 212.625H112.56V213H111.345V212.625Z" fill="black"/>
<path d="M117.18 212.677V214.05H116.752V212.73C116.752 212.257 116.528 212.032 116.138 212.032C116.033 212.022 115.928 212.035 115.83 212.072C115.731 212.109 115.643 212.167 115.57 212.243C115.498 212.319 115.444 212.41 115.412 212.51C115.381 212.61 115.372 212.716 115.388 212.82V214.05H114.96V212.73C114.96 212.257 114.735 212.032 114.337 212.032C114.233 212.022 114.128 212.035 114.03 212.072C113.931 212.109 113.843 212.167 113.77 212.243C113.698 212.319 113.644 212.41 113.612 212.51C113.581 212.61 113.572 212.716 113.587 212.82V214.05H113.25V211.665H113.663V212.025C113.756 211.897 113.879 211.795 114.022 211.728C114.165 211.662 114.323 211.632 114.48 211.642C114.646 211.63 114.813 211.665 114.96 211.743C115.107 211.821 115.23 211.94 115.312 212.085C115.417 211.941 115.555 211.825 115.714 211.748C115.874 211.671 116.05 211.634 116.228 211.642C116.362 211.635 116.495 211.658 116.62 211.709C116.744 211.76 116.855 211.837 116.946 211.936C117.037 212.035 117.105 212.153 117.146 212.281C117.186 212.409 117.198 212.544 117.18 212.677Z" fill="black"/>
<path d="M119.873 212.61V214.05H119.46V213.75C119.373 213.864 119.259 213.955 119.128 214.015C118.997 214.075 118.854 214.102 118.71 214.095C118.17 214.095 117.825 213.802 117.825 213.39C117.825 212.977 118.073 212.692 118.785 212.692H119.468V212.61C119.468 212.242 119.258 212.032 118.83 212.032C118.559 212.031 118.295 212.121 118.08 212.287L117.9 211.965C118.183 211.753 118.53 211.645 118.883 211.657C119.498 211.642 119.873 211.957 119.873 212.61ZM119.438 213.322V213H118.77C118.343 213 118.223 213.172 118.223 213.375C118.223 213.577 118.418 213.757 118.748 213.757C118.894 213.766 119.039 213.729 119.163 213.651C119.287 213.573 119.383 213.458 119.438 213.322Z" fill="black"/>
<path d="M120.593 210.93C120.593 210.892 120.6 210.854 120.615 210.819C120.63 210.784 120.652 210.752 120.679 210.725C120.706 210.699 120.738 210.678 120.774 210.664C120.809 210.65 120.847 210.644 120.885 210.645C120.941 210.646 120.996 210.664 121.042 210.696C121.087 210.728 121.123 210.773 121.143 210.826C121.164 210.878 121.168 210.935 121.156 210.99C121.145 211.044 121.117 211.095 121.077 211.134C121.037 211.173 120.986 211.199 120.931 211.21C120.876 211.22 120.819 211.214 120.767 211.192C120.715 211.17 120.671 211.134 120.64 211.087C120.609 211.04 120.593 210.986 120.593 210.93ZM120.675 211.68H121.103V214.065H120.675V211.68Z" fill="black"/>
<path d="M121.928 210.75H122.355V214.088H121.928V210.75Z" fill="black"/>
</g>
<g opacity="0.8">
<path d="M188.288 229.641H113.805C112.309 229.641 110.875 229.047 109.817 227.989C108.759 226.932 108.165 225.497 108.165 224.001C108.165 222.506 108.759 221.071 109.817 220.013C110.875 218.956 112.309 218.361 113.805 218.361H188.288C189.783 218.361 191.218 218.956 192.276 220.013C193.333 221.071 193.928 222.506 193.928 224.001C193.928 225.497 193.333 226.932 192.276 227.989C191.218 229.047 189.783 229.641 188.288 229.641Z" fill="white"/>
</g>
<g opacity="0.5">
<path d="M111.18 239.752C111.18 240.434 110.685 240.847 109.867 240.847H109.117V241.799H108.667V238.649H109.897C110.685 238.649 111.18 239.062 111.18 239.752ZM110.73 239.752C110.73 239.302 110.43 239.039 109.852 239.039H109.102V240.457H109.852C110.43 240.457 110.73 240.194 110.73 239.752Z" fill="black"/>
<path d="M113.647 240.36V241.8H113.25V241.5C113.163 241.614 113.049 241.706 112.918 241.766C112.787 241.826 112.643 241.853 112.5 241.845C111.96 241.845 111.615 241.552 111.615 241.14C111.615 240.727 111.862 240.442 112.575 240.442H113.25V240.36C113.25 239.992 113.04 239.782 112.612 239.782C112.341 239.781 112.077 239.871 111.862 240.037L111.682 239.715C111.968 239.503 112.317 239.395 112.672 239.407C113.25 239.392 113.647 239.707 113.647 240.36ZM113.212 241.072V240.75H112.545C112.117 240.75 111.997 240.922 111.997 241.125C111.997 241.327 112.2 241.507 112.522 241.507C112.675 241.526 112.829 241.493 112.961 241.415C113.092 241.336 113.194 241.215 113.25 241.072H113.212Z" fill="black"/>
<path d="M114.15 241.544L114.33 241.207C114.577 241.37 114.867 241.456 115.162 241.454C115.56 241.454 115.732 241.334 115.732 241.132C115.732 240.592 114.232 241.057 114.232 240.104C114.232 239.684 114.615 239.392 115.222 239.392C115.526 239.387 115.826 239.462 116.092 239.609L115.905 239.947C115.7 239.82 115.463 239.755 115.222 239.759C114.84 239.759 114.66 239.902 114.66 240.089C114.66 240.652 116.16 240.194 116.16 241.117C116.16 241.552 115.762 241.829 115.132 241.829C114.783 241.837 114.44 241.738 114.15 241.544Z" fill="black"/>
<path d="M116.4 241.544L116.58 241.207C116.83 241.369 117.122 241.454 117.42 241.454C117.817 241.454 117.982 241.334 117.982 241.132C117.982 240.592 116.482 241.057 116.482 240.104C116.482 239.684 116.865 239.392 117.48 239.392C117.784 239.388 118.084 239.463 118.35 239.609L118.162 239.947C117.955 239.821 117.715 239.756 117.472 239.759C117.097 239.759 116.91 239.902 116.91 240.089C116.91 240.652 118.41 240.194 118.41 241.117C118.41 241.552 118.012 241.829 117.375 241.829C117.029 241.835 116.689 241.735 116.4 241.544Z" fill="black"/>
<path d="M122.52 239.414L121.627 241.799H121.215L120.525 239.999L119.828 241.807H119.415L118.5 239.414H118.905L119.603 241.312L120.353 239.414H120.75L121.5 241.319L122.205 239.414H122.52Z" fill="black"/>
<path d="M122.67 240.607C122.667 240.362 122.737 240.121 122.871 239.915C123.005 239.71 123.198 239.549 123.424 239.453C123.649 239.357 123.899 239.33 124.14 239.376C124.381 239.423 124.603 239.539 124.777 239.712C124.952 239.884 125.071 240.105 125.12 240.345C125.169 240.585 125.145 240.835 125.052 241.062C124.959 241.289 124.8 241.483 124.597 241.62C124.393 241.756 124.153 241.829 123.908 241.829C123.744 241.837 123.581 241.81 123.429 241.752C123.277 241.693 123.138 241.603 123.022 241.489C122.905 241.374 122.814 241.236 122.754 241.085C122.693 240.933 122.665 240.77 122.67 240.607ZM124.71 240.607C124.71 240.502 124.689 240.397 124.649 240.3C124.609 240.203 124.55 240.114 124.475 240.04C124.4 239.965 124.312 239.906 124.215 239.866C124.117 239.825 124.013 239.804 123.908 239.804C123.802 239.804 123.698 239.825 123.6 239.866C123.503 239.906 123.415 239.965 123.34 240.04C123.266 240.114 123.206 240.203 123.166 240.3C123.126 240.397 123.105 240.502 123.105 240.607C123.105 240.712 123.126 240.817 123.166 240.914C123.206 241.011 123.266 241.1 123.34 241.174C123.415 241.249 123.503 241.308 123.6 241.348C123.698 241.389 123.802 241.409 123.908 241.409C124.013 241.409 124.117 241.389 124.215 241.348C124.312 241.308 124.4 241.249 124.475 241.174C124.55 241.1 124.609 241.011 124.649 240.914C124.689 240.817 124.71 240.712 124.71 240.607Z" fill="black"/>
<path d="M127.028 239.391V239.811H126.93C126.826 239.811 126.724 239.832 126.629 239.874C126.533 239.915 126.448 239.976 126.377 240.052C126.307 240.128 126.253 240.218 126.219 240.316C126.185 240.414 126.172 240.518 126.18 240.621V241.806H125.745V239.421H126.158V239.819C126.248 239.673 126.378 239.556 126.531 239.481C126.685 239.405 126.857 239.374 127.028 239.391Z" fill="black"/>
<path d="M129.787 238.499V241.837H129.375V241.462C129.276 241.594 129.147 241.699 128.998 241.77C128.849 241.841 128.685 241.874 128.52 241.867C128.213 241.842 127.927 241.704 127.718 241.478C127.509 241.252 127.393 240.955 127.393 240.648C127.393 240.34 127.509 240.044 127.718 239.818C127.927 239.592 128.213 239.453 128.52 239.429C128.679 239.423 128.837 239.454 128.982 239.521C129.127 239.587 129.253 239.687 129.352 239.812V238.499H129.787ZM129.36 240.644C129.353 240.487 129.299 240.336 129.207 240.209C129.114 240.082 128.987 239.985 128.839 239.93C128.692 239.875 128.532 239.864 128.379 239.899C128.226 239.934 128.087 240.014 127.978 240.127C127.869 240.241 127.797 240.384 127.769 240.538C127.741 240.693 127.759 240.852 127.82 240.997C127.882 241.141 127.985 241.264 128.116 241.351C128.247 241.438 128.4 241.484 128.557 241.484C128.672 241.494 128.787 241.477 128.894 241.435C129.001 241.394 129.097 241.328 129.175 241.243C129.252 241.158 129.309 241.057 129.341 240.946C129.374 240.836 129.38 240.72 129.36 240.607V240.644Z" fill="black"/>
</g>
<g opacity="0.8">
<path d="M188.288 257.391H113.805C112.309 257.391 110.875 256.797 109.817 255.739C108.759 254.682 108.165 253.247 108.165 251.751C108.165 250.256 108.759 248.821 109.817 247.763C110.875 246.706 112.309 246.111 113.805 246.111H188.288C189.783 246.111 191.218 246.706 192.276 247.763C193.333 248.821 193.928 250.256 193.928 251.751C193.928 253.247 193.333 254.682 192.276 255.739C191.218 256.797 189.783 257.391 188.288 257.391Z" fill="white"/>
</g>
<path d="M169.623 280.28H132.64C131.899 280.28 131.166 280.134 130.482 279.851C129.797 279.567 129.176 279.152 128.652 278.628C128.128 278.104 127.713 277.483 127.429 276.798C127.146 276.114 127 275.381 127 274.64C127 273.899 127.146 273.166 127.429 272.482C127.713 271.797 128.128 271.176 128.652 270.652C129.176 270.128 129.797 269.713 130.482 269.429C131.166 269.146 131.899 269 132.64 269H169.623C171.118 269 172.553 269.594 173.611 270.652C174.668 271.71 175.263 273.144 175.263 274.64C175.263 276.136 174.668 277.57 173.611 278.628C172.553 279.686 171.118 280.28 169.623 280.28Z" fill="#286AB0"/>
<path d="M143.463 272.779C143.215 272.619 142.96 272.496 142.699 272.409C142.442 272.322 142.215 272.278 142.017 272.278C141.797 272.278 141.623 272.322 141.494 272.409C141.365 272.496 141.301 272.617 141.301 272.772C141.301 272.912 141.345 273.031 141.432 273.128C141.524 273.22 141.636 273.297 141.769 273.36C141.907 273.418 142.093 273.483 142.327 273.556C142.653 273.658 142.919 273.759 143.126 273.861C143.337 273.963 143.516 274.113 143.663 274.311C143.81 274.51 143.883 274.771 143.883 275.095C143.883 275.405 143.803 275.676 143.642 275.909C143.486 276.136 143.268 276.311 142.988 276.432C142.713 276.553 142.396 276.613 142.038 276.613C141.662 276.613 141.294 276.54 140.936 276.395C140.578 276.245 140.266 276.047 140 275.8L140.386 274.972C140.629 275.209 140.902 275.396 141.205 275.531C141.508 275.667 141.79 275.734 142.052 275.734C142.309 275.734 142.511 275.684 142.658 275.582C142.804 275.475 142.878 275.333 142.878 275.154C142.878 275.008 142.832 274.89 142.74 274.798C142.653 274.701 142.54 274.623 142.403 274.565C142.265 274.507 142.077 274.442 141.838 274.369C141.512 274.268 141.246 274.168 141.04 274.072C140.833 273.975 140.656 273.83 140.509 273.636C140.363 273.437 140.289 273.178 140.289 272.859C140.289 272.564 140.363 272.307 140.509 272.089C140.661 271.867 140.872 271.695 141.143 271.574C141.418 271.453 141.735 271.392 142.093 271.392C142.405 271.392 142.713 271.441 143.016 271.537C143.323 271.634 143.596 271.765 143.835 271.929L143.463 272.779Z" fill="white"/>
<path d="M144.722 272.67H145.618V276.555H144.722V272.67ZM145.163 271C145.31 271 145.432 271.053 145.528 271.16C145.624 271.266 145.673 271.402 145.673 271.566C145.673 271.726 145.624 271.859 145.528 271.966C145.432 272.072 145.31 272.126 145.163 272.126C145.016 272.126 144.895 272.072 144.798 271.966C144.702 271.859 144.654 271.726 144.654 271.566C144.654 271.402 144.702 271.266 144.798 271.16C144.895 271.053 145.016 271 145.163 271Z" fill="white"/>
<path d="M150.093 272.67V276.185C150.093 276.553 150.012 276.872 149.852 277.143C149.696 277.419 149.471 277.63 149.177 277.775C148.888 277.925 148.551 278 148.165 278C147.605 278 147.086 277.828 146.609 277.484L146.967 276.802C147.316 277.073 147.699 277.209 148.117 277.209C148.447 277.209 148.709 277.119 148.902 276.94C149.099 276.761 149.198 276.516 149.198 276.206V275.749C149.074 275.947 148.913 276.1 148.716 276.206C148.518 276.308 148.289 276.359 148.027 276.359C147.706 276.359 147.421 276.281 147.174 276.127C146.926 275.967 146.733 275.747 146.595 275.466C146.458 275.18 146.389 274.853 146.389 274.485C146.389 274.122 146.458 273.803 146.595 273.527C146.733 273.246 146.926 273.028 147.174 272.873C147.421 272.719 147.706 272.641 148.027 272.641C148.284 272.641 148.512 272.694 148.709 272.801C148.911 272.907 149.074 273.057 149.198 273.251V272.67H150.093ZM148.22 275.618C148.509 275.618 148.743 275.517 148.922 275.313C149.106 275.105 149.198 274.836 149.198 274.507C149.198 274.178 149.106 273.912 148.922 273.709C148.743 273.5 148.509 273.396 148.22 273.396C147.931 273.396 147.695 273.5 147.511 273.709C147.332 273.917 147.24 274.183 147.236 274.507C147.24 274.836 147.332 275.105 147.511 275.313C147.695 275.517 147.931 275.618 148.22 275.618Z" fill="white"/>
<path d="M153.36 272.634C153.783 272.634 154.115 272.769 154.359 273.04C154.602 273.307 154.723 273.67 154.723 274.13V276.555H153.822V274.406C153.822 274.135 153.748 273.922 153.601 273.767C153.454 273.607 153.255 273.527 153.002 273.527C152.704 273.532 152.468 273.638 152.293 273.846C152.123 274.055 152.038 274.321 152.038 274.645V276.555H151.143V272.67H152.038V273.396C152.291 272.898 152.731 272.643 153.36 272.634Z" fill="white"/>
<path d="M157.416 272.67H158.311V276.555H157.416V272.67ZM157.857 271C158.004 271 158.125 271.053 158.222 271.16C158.318 271.266 158.366 271.402 158.366 271.566C158.366 271.726 158.318 271.859 158.222 271.966C158.125 272.072 158.004 272.126 157.857 272.126C157.71 272.126 157.588 272.072 157.492 271.966C157.396 271.859 157.347 271.726 157.347 271.566C157.347 271.402 157.396 271.266 157.492 271.16C157.588 271.053 157.71 271 157.857 271Z" fill="white"/>
<path d="M161.637 272.634C162.059 272.634 162.392 272.769 162.635 273.04C162.878 273.307 163 273.67 163 274.13V276.555H162.098V274.406C162.098 274.135 162.025 273.922 161.878 273.767C161.731 273.607 161.531 273.527 161.279 273.527C160.98 273.532 160.744 273.638 160.57 273.846C160.4 274.055 160.315 274.321 160.315 274.645V276.555H159.42V272.67H160.315V273.396C160.567 272.898 161.008 272.643 161.637 272.634Z" fill="white"/>
<path d="M285.075 138.69L252.87 138.39C252.135 138.38 251.435 138.079 250.921 137.553C250.408 137.028 250.124 136.32 250.132 135.585L250.44 125.872C250.444 125.509 250.519 125.15 250.662 124.816C250.805 124.481 251.012 124.178 251.272 123.924C251.532 123.67 251.839 123.47 252.176 123.334C252.513 123.199 252.874 123.131 253.237 123.135L285.487 123.442C286.222 123.452 286.923 123.753 287.436 124.279C287.949 124.805 288.233 125.513 288.225 126.247L287.917 135.96C287.914 136.327 287.837 136.689 287.691 137.026C287.545 137.363 287.334 137.668 287.069 137.922C286.805 138.176 286.492 138.375 286.15 138.507C285.807 138.639 285.442 138.701 285.075 138.69Z" fill="#286AB0"/>
<path d="M268.5 136.238C268.5 136.238 264.42 145.238 255.495 147.99C255.495 147.99 260.445 145.215 260.19 135.758L268.5 136.238Z" fill="#286AB0"/>
<path d="M258.488 130.8L259.238 131.22L258.893 131.798L258.143 131.333V132.188H257.483V131.333L256.733 131.798L256.395 131.22L257.145 130.8L256.395 130.38L256.733 129.803L257.483 130.268V129.405H258.143V130.268L258.893 129.803L259.238 130.38L258.488 130.8Z" fill="white"/>
<path d="M263.093 130.801L263.843 131.221L263.497 131.798L262.747 131.333V132.188H262.088V131.333L261.338 131.798L261 131.251L261.75 130.831L261 130.411L261.345 129.833L262.095 130.298V129.436H262.755V130.298L263.505 129.833L263.85 130.411L263.093 130.801Z" fill="white"/>
<path d="M267.705 130.8L268.455 131.22L268.11 131.798L267.36 131.333V132.188H266.692V131.333L265.942 131.798L265.605 131.22L266.355 130.8L265.605 130.38L265.942 129.803L266.692 130.268V129.405H267.36V130.268L268.11 129.803L268.455 130.38L267.705 130.8Z" fill="white"/>
<path d="M272.31 130.8L273.06 131.22L272.715 131.798L271.965 131.333V132.188H271.305V131.333L270.555 131.798L270.218 131.22L270.968 130.8L270.218 130.38L270.555 129.803L271.305 130.268V129.405H271.965V130.268L272.715 129.803L273.06 130.38L272.31 130.8Z" fill="white"/>
<path d="M276.915 130.8L277.665 131.22L277.32 131.798L276.57 131.333V132.188H275.91V131.333L275.16 131.798L274.815 131.22L275.565 130.8L274.815 130.38L275.16 129.803L275.91 130.268V129.405H276.57V130.268L277.32 129.803L277.665 130.38L276.915 130.8Z" fill="white"/>
<path d="M281.528 130.8L282.278 131.22L281.933 131.798L281.183 131.333V132.188H280.5V131.333L279.75 131.798L279.413 131.22L280.163 130.8L279.413 130.38L279.75 129.803L280.5 130.268V129.405H281.168V130.268L281.918 129.803L282.263 130.38L281.528 130.8Z" fill="white"/>
<path d="M234.105 154.5C238.395 155.168 242.557 168.382 244.365 169.5C246.172 170.618 244.62 157.125 244.62 157.125L248.055 156.667C248.055 156.667 252.12 177.007 246.187 176.857C241.687 176.745 236.287 169.193 234.937 165.345L234.105 154.5Z" fill="#EBB376"/>
<path opacity="0.1" d="M246.187 176.805C243.45 176.737 240.382 173.925 238.102 170.865C236.799 169.165 235.744 167.289 234.967 165.292L234.525 159.742L234.105 154.492C238.395 155.16 242.557 168.375 244.365 169.492C246.172 170.61 244.62 157.117 244.62 157.117L248.055 156.66C248.055 156.66 252.12 176.955 246.187 176.805Z" fill="black"/>
<path opacity="0.2" d="M238.102 170.865C236.799 169.165 235.744 167.289 234.967 165.292L234.525 159.742C234.525 159.742 239.205 164.452 238.102 170.865Z" fill="black"/>
<path d="M218.31 127.169C218.31 127.169 210.667 127.079 211.035 137.587C211.402 148.094 218.752 148.237 216.285 151.274C218.477 152.204 220.834 152.683 223.215 152.683C225.596 152.683 227.953 152.204 230.145 151.274C230.145 151.274 228.787 150.742 229.432 148.814C230.077 146.887 233.617 144.127 233.932 140.062C234.247 135.997 226.215 126.119 218.31 127.169Z" fill="#263238"/>
<path d="M225.863 147.285C225.863 147.285 235.613 145.477 233.985 136.207C232.65 128.61 229.103 126.172 225.863 125.085C224.467 124.615 222.956 124.614 221.56 125.082C220.164 125.551 218.959 126.463 218.13 127.68C218.13 127.68 211.515 125.805 212.663 136.68C213.81 147.555 220.995 152.25 225.863 147.285Z" fill="#263238"/>
<path d="M243.637 302.617L239.302 300.397L240.877 293.917L242.332 287.984L247.792 289.769L245.595 296.572L243.637 302.617Z" fill="#EBB376"/>
<path d="M238.095 299.377C238.35 298.897 244.17 302.272 244.17 302.272C244.17 302.272 245.993 307.874 249.165 310.522C252.338 313.169 249.255 314.309 245.243 312.314L235.313 307.364C232.5 305.932 235.455 304.387 238.095 299.377Z" fill="#263238"/>
<path d="M246.143 305.122C245.512 304.612 244.945 304.027 244.455 303.382C244.451 303.364 244.451 303.346 244.455 303.329C244.451 303.307 244.451 303.284 244.455 303.262C244.452 303.247 244.452 303.231 244.455 303.217C244.461 303.189 244.477 303.165 244.5 303.149C244.553 303.097 245.753 301.949 246.75 302.017C246.897 302.026 247.04 302.068 247.169 302.138C247.298 302.207 247.411 302.304 247.5 302.422C247.595 302.509 247.66 302.625 247.685 302.751C247.711 302.878 247.696 303.009 247.643 303.127C247.463 303.434 246.893 303.532 246.263 303.554C246.756 303.702 247.198 303.985 247.538 304.372C247.595 304.452 247.634 304.544 247.654 304.641C247.673 304.738 247.672 304.838 247.65 304.934C247.568 305.339 247.35 305.467 247.185 305.504C246.994 305.515 246.803 305.487 246.624 305.422C246.444 305.356 246.281 305.254 246.143 305.122ZM245.055 303.554C245.753 304.372 246.69 305.257 247.088 305.159C247.125 305.159 247.23 305.159 247.283 304.867C247.294 304.815 247.293 304.761 247.282 304.709C247.27 304.657 247.247 304.609 247.215 304.567C246.908 304.102 245.798 303.749 245.055 303.554ZM247.05 302.497C246.943 302.419 246.815 302.375 246.683 302.369C246.06 302.435 245.474 302.698 245.01 303.119C246.068 303.224 247.163 303.179 247.313 302.917C247.358 302.834 247.26 302.692 247.193 302.609C247.151 302.565 247.103 302.527 247.05 302.497Z" fill="#286AB0"/>
<path opacity="0.2" d="M245.543 296.707L240.833 294.045L242.303 288.045L247.785 289.8L245.543 296.707Z" fill="black"/>
<path d="M235.987 308.032H231.03L229.612 301.657L228.322 295.815L234.12 294.93L235.11 301.867L235.987 308.032Z" fill="#EBB376"/>
<path d="M229.395 307.837C229.395 307.29 236.145 307.717 236.145 307.717C236.145 307.717 240.278 311.917 244.29 312.862C248.303 313.807 246.06 316.215 241.575 316.215H230.453C227.25 316.215 229.26 313.5 229.395 307.837Z" fill="#263238"/>
<path d="M239.647 309.434C238.678 309.314 237.737 309.027 236.865 308.587L236.805 308.542V308.504C236.79 308.458 236.79 308.408 236.805 308.362C236.805 308.302 237.397 306.734 238.305 306.352C238.441 306.289 238.589 306.256 238.74 306.256C238.89 306.256 239.038 306.289 239.175 306.352C239.482 306.502 239.625 306.689 239.617 306.922C239.617 307.274 239.115 307.627 238.567 307.919C239.073 307.828 239.594 307.885 240.067 308.084C240.154 308.132 240.23 308.196 240.292 308.273C240.354 308.35 240.4 308.439 240.427 308.534C240.482 308.661 240.496 308.801 240.467 308.936C240.437 309.071 240.365 309.193 240.262 309.284C240.081 309.405 239.863 309.458 239.647 309.434ZM237.48 308.474C238.47 308.887 239.73 309.262 240.015 308.999C240.015 308.999 240.127 308.909 240.06 308.647C240.047 308.597 240.024 308.55 239.992 308.51C239.959 308.469 239.919 308.437 239.872 308.414C239.385 308.129 238.237 308.302 237.48 308.474ZM238.68 306.622C238.587 306.624 238.495 306.644 238.41 306.682C237.883 307.028 237.479 307.532 237.255 308.122C238.252 307.747 239.212 307.222 239.227 306.922C239.227 306.824 239.085 306.742 238.995 306.697C238.897 306.647 238.789 306.621 238.68 306.622Z" fill="#286AB0"/>
<path opacity="0.2" d="M235.125 302.01L229.628 301.785L228.33 295.875L234.128 294.96L235.125 302.01Z" fill="black"/>
<path d="M211.815 191.354L223.988 189.404L235.02 187.154L238.02 205.154C238.02 205.154 253.553 227.654 257.318 243.134C261.083 258.614 246.96 294.524 246.96 294.524L240.473 291.652C240.473 291.652 244.973 257.114 244.868 252.967C244.8 250.267 235.943 237.817 229.748 229.424C229.568 231.532 231.578 252.539 231.578 252.539L235.95 298.589H227.775C199.665 211.297 211.815 191.354 211.815 191.354Z" fill="#263238"/>
<path opacity="0.6" d="M227.775 298.56H235.92L231.547 252.51C231.547 252.51 229.552 231.36 229.717 229.395C230.94 231.052 232.267 232.86 233.61 234.728C239.062 242.31 244.785 250.762 244.86 252.93C244.965 257.085 240.465 291.622 240.465 291.622L246.952 294.495C246.952 294.495 261.075 258.57 257.31 243.098C253.545 227.625 238.012 205.125 238.012 205.125L235.012 187.125L223.98 189.375L211.807 191.325C211.807 191.325 199.665 211.297 227.775 298.56Z" fill="white"/>
<path d="M240.105 288.72L249.682 292.02L247.545 295.305L239.677 292.492L240.105 288.72Z" fill="#286AB0"/>
<path d="M226.605 297.457L236.85 296.055L236.34 299.88L227.88 300.945L226.605 297.457Z" fill="#286AB0"/>
<path opacity="0.2" d="M229.718 229.395C230.94 231.053 232.268 232.86 233.61 234.728C231.465 223.613 228.938 212.79 228.938 212.79C228.617 218.337 228.879 223.902 229.718 229.395Z" fill="black"/>
<path d="M234.802 187.859L212.595 189.397C212.595 189.397 212.295 177.502 210.525 171.314C210.285 170.482 210.022 169.612 209.73 168.682C209.317 167.377 208.845 165.974 208.305 164.444C208.177 164.084 207.855 163.184 207.465 162.142C207.156 161.31 207.095 160.406 207.288 159.54C207.481 158.674 207.92 157.882 208.552 157.259C209.168 156.643 209.95 156.218 210.802 156.037C212.437 155.677 214.05 155.339 214.927 155.204C218.254 154.677 221.611 154.359 224.977 154.252C227.827 154.252 230.977 154.417 232.777 154.544L234.337 154.664C234.337 154.664 235.042 154.822 235.492 158.954C235.897 162.839 235.702 173.729 234.802 187.859Z" fill="#286AB0"/>
<path d="M224.25 159C218.647 157.988 217.072 155.498 217.072 155.498C220.822 152.303 218.152 146.303 218.152 146.303L224.902 147.915C224.695 148.851 224.557 149.801 224.49 150.758C224.227 154.875 226.087 155.01 226.087 155.01C227.115 157.268 224.25 159 224.25 159Z" fill="#EBB376"/>
<path opacity="0.2" d="M224.85 147.877C224.643 148.813 224.505 149.763 224.437 150.72C221.205 149.797 218.13 146.265 218.13 146.265L224.85 147.877Z" fill="black"/>
<path d="M224.355 128.64C230.243 129.172 231.855 132.495 231.743 138.607C231.6 146.242 229.433 151.485 222.21 149.197C212.4 146.1 214.568 127.762 224.355 128.64Z" fill="#EBB376"/>
<path d="M228 137.932C228.393 138.856 228.897 139.73 229.5 140.534C229.305 140.761 229.051 140.929 228.767 141.022C228.483 141.115 228.178 141.127 227.887 141.059L228 137.932Z" fill="#D58745"/>
<path d="M224.4 137.13C224.4 137.61 224.078 137.985 223.755 137.97C223.433 137.955 223.2 137.535 223.23 137.047C223.26 136.56 223.553 136.192 223.875 136.207C224.198 136.222 224.43 136.642 224.4 137.13Z" fill="#263238"/>
<path d="M223.732 136.222L224.82 135.877C224.82 135.877 224.25 136.732 223.732 136.222Z" fill="#263238"/>
<path d="M230.438 137.429C230.4 137.909 230.115 138.284 229.793 138.262C229.47 138.239 229.23 137.834 229.268 137.347C229.305 136.859 229.583 136.484 229.913 136.507C230.243 136.529 230.468 136.942 230.438 137.429Z" fill="#263238"/>
<path d="M229.77 136.499L230.858 136.154C230.858 136.154 230.25 137.032 229.77 136.499Z" fill="#263238"/>
<path d="M222.067 133.987C221.998 133.985 221.932 133.959 221.88 133.912C221.83 133.859 221.803 133.789 221.803 133.717C221.803 133.645 221.83 133.575 221.88 133.522C222.271 133.181 222.737 132.937 223.239 132.806C223.741 132.676 224.267 132.664 224.775 132.772C224.81 132.78 224.843 132.795 224.872 132.815C224.902 132.836 224.926 132.862 224.946 132.892C224.965 132.923 224.978 132.957 224.984 132.992C224.99 133.027 224.989 133.063 224.981 133.098C224.973 133.133 224.959 133.166 224.938 133.196C224.917 133.225 224.891 133.25 224.861 133.269C224.83 133.288 224.797 133.301 224.761 133.307C224.726 133.313 224.69 133.312 224.655 133.305C224.239 133.216 223.808 133.222 223.395 133.324C222.982 133.425 222.598 133.619 222.27 133.89C222.245 133.919 222.214 133.944 222.179 133.96C222.144 133.977 222.106 133.986 222.067 133.987Z" fill="#263238"/>
<path d="M231.315 134.159C231.253 134.158 231.192 134.137 231.142 134.099C230.871 133.842 230.544 133.649 230.186 133.538C229.829 133.426 229.45 133.397 229.08 133.454C229.01 133.471 228.937 133.459 228.876 133.423C228.814 133.387 228.769 133.328 228.75 133.259C228.732 133.191 228.741 133.118 228.776 133.056C228.811 132.994 228.869 132.949 228.937 132.929C229.392 132.85 229.858 132.877 230.3 133.007C230.742 133.137 231.149 133.367 231.487 133.679C231.515 133.702 231.538 133.73 231.555 133.761C231.572 133.793 231.583 133.827 231.586 133.863C231.59 133.898 231.586 133.934 231.576 133.969C231.565 134.003 231.548 134.035 231.525 134.062C231.5 134.093 231.468 134.118 231.431 134.135C231.395 134.152 231.355 134.16 231.315 134.159Z" fill="#263238"/>
<path d="M217.02 137.999C217.02 137.999 220.207 133.402 220.125 129.629C220.125 129.629 232.23 125.879 231.742 137.812C231.742 137.812 233.827 127.394 223.725 126.247C213.622 125.099 212.325 139.927 217.162 144.809C217.162 144.802 215.04 140.864 217.02 137.999Z" fill="#263238"/>
<path d="M217.868 139.32C217.87 138.98 217.806 138.643 217.679 138.328C217.552 138.013 217.364 137.726 217.126 137.484C216.887 137.241 216.604 137.048 216.291 136.916C215.978 136.783 215.642 136.713 215.303 136.71C213.458 136.747 212.25 140.415 216.713 141.727C217.35 141.915 217.778 141.307 217.868 139.32Z" fill="#EBB376"/>
<path d="M227.317 143.805C226.598 143.84 225.887 143.64 225.293 143.233C224.698 142.827 224.253 142.238 224.025 141.555C224.015 141.522 224.011 141.487 224.014 141.453C224.017 141.418 224.027 141.385 224.043 141.354C224.059 141.323 224.081 141.296 224.107 141.274C224.134 141.252 224.164 141.235 224.197 141.225C224.231 141.214 224.267 141.211 224.303 141.214C224.338 141.218 224.372 141.228 224.404 141.245C224.435 141.261 224.463 141.284 224.485 141.312C224.508 141.339 224.525 141.371 224.535 141.405C224.734 141.998 225.128 142.507 225.651 142.85C226.175 143.193 226.799 143.349 227.422 143.295C227.493 143.291 227.562 143.314 227.615 143.36C227.669 143.407 227.702 143.472 227.707 143.542C227.712 143.613 227.688 143.682 227.642 143.735C227.596 143.788 227.53 143.821 227.46 143.827L227.317 143.805Z" fill="#263238"/>
<path d="M231.652 136.146C231.596 136.146 231.54 136.128 231.495 136.094C231.449 136.06 231.415 136.013 231.397 135.959C229.102 128.459 220.312 129.629 220.23 129.644C220.195 129.649 220.16 129.647 220.127 129.638C220.093 129.63 220.061 129.615 220.033 129.594C220.005 129.573 219.982 129.547 219.964 129.517C219.947 129.487 219.935 129.453 219.93 129.419C219.925 129.385 219.927 129.349 219.936 129.316C219.944 129.282 219.959 129.25 219.98 129.222C220.001 129.195 220.027 129.171 220.057 129.153C220.087 129.136 220.12 129.124 220.155 129.119C220.245 129.119 229.477 127.881 231.907 135.801C231.918 135.835 231.921 135.87 231.918 135.905C231.914 135.94 231.904 135.974 231.887 136.004C231.87 136.035 231.847 136.062 231.82 136.084C231.793 136.106 231.761 136.122 231.727 136.131L231.652 136.146Z" fill="#263238"/>
<path d="M246.9 148.814C246.9 148.814 249.998 148.761 250.103 149.301C250.208 149.841 250.005 154.379 249.593 155.016C249.143 155.593 248.627 156.114 248.055 156.569L248.355 164.609L246.51 165.254L244.838 157.896C244.838 157.896 242.94 156.044 243.495 153.696C244.05 151.349 246.9 148.814 246.9 148.814Z" fill="#EBB376"/>
<path opacity="0.1" d="M246.9 148.814C246.9 148.814 249.998 148.761 250.103 149.301C250.208 149.841 250.005 154.379 249.593 155.016C249.143 155.593 248.627 156.114 248.055 156.569L248.355 164.609L246.51 165.254L244.838 157.896C244.838 157.896 242.94 156.044 243.495 153.696C244.05 151.349 246.9 148.814 246.9 148.814Z" fill="black"/>
<path d="M241.642 152.774C241.64 152.842 241.652 152.909 241.677 152.971C241.703 153.033 241.742 153.089 241.791 153.135C241.84 153.182 241.898 153.217 241.962 153.239C242.025 153.26 242.093 153.268 242.16 153.262L247.41 152.857C247.556 152.843 247.693 152.777 247.794 152.671C247.896 152.565 247.957 152.426 247.965 152.279L248.34 141.779C248.344 141.708 248.333 141.636 248.309 141.568C248.285 141.5 248.247 141.438 248.198 141.386C248.148 141.333 248.089 141.291 248.024 141.262C247.958 141.233 247.887 141.218 247.815 141.217L242.565 141.622C242.412 141.652 242.275 141.733 242.174 141.851C242.073 141.97 242.015 142.119 242.01 142.274L241.642 152.774Z" fill="#263238"/>
<path opacity="0.5" d="M242.595 142.17L242.25 152.76C242.24 152.822 242.245 152.887 242.264 152.947C242.284 153.008 242.317 153.063 242.361 153.108C242.406 153.153 242.46 153.187 242.521 153.208C242.581 153.228 242.645 153.234 242.708 153.225L247.17 152.88C247.47 152.88 248.01 152.647 248.018 152.347L248.393 141.727C248.393 141.427 247.875 141.232 247.575 141.255L243.075 141.6C242.937 141.615 242.811 141.682 242.721 141.789C242.632 141.895 242.587 142.031 242.595 142.17Z" fill="white"/>
<path d="M236.287 160.739L238.29 156.066C238.29 156.066 238.942 149.804 239.257 149.129C239.572 148.454 244.672 148.709 245.257 148.671C245.842 148.634 245.707 154.881 245.175 155.541C244.642 156.201 242.557 156.726 242.557 156.726L239.355 162.936L236.287 160.739Z" fill="#EBB376"/>
<path d="M230.647 158.204C230.107 160.349 228.03 161.999 223.732 161.954C221.295 161.913 218.934 161.104 216.982 159.644C215.429 158.503 214.085 157.102 213.007 155.504C213.63 155.392 214.26 155.294 214.89 155.197C218.217 154.669 221.573 154.351 224.94 154.244C226.717 154.244 228.6 154.297 230.19 154.379C230.747 155.572 230.908 156.913 230.647 158.204Z" fill="#EBB376"/>
<path d="M212.535 187.717L211.605 191.782L235.575 190.522L234.885 186.51L212.535 187.717Z" fill="#263238"/>
<path d="M226.155 191.19C225.933 191.191 225.718 191.11 225.553 190.961C225.388 190.813 225.285 190.608 225.262 190.387L224.985 187.792C224.963 187.546 225.038 187.301 225.195 187.11C225.273 187.017 225.369 186.941 225.477 186.887C225.585 186.833 225.704 186.802 225.825 186.795L229.32 186.555C229.555 186.538 229.787 186.615 229.967 186.768C230.146 186.92 230.259 187.138 230.28 187.372L230.52 189.93C230.541 190.17 230.469 190.41 230.317 190.597C230.24 190.689 230.145 190.765 230.038 190.819C229.931 190.873 229.814 190.905 229.695 190.912L226.23 191.19H226.155ZM225.735 187.71L226.005 190.305C226.01 190.344 226.03 190.38 226.061 190.405C226.091 190.43 226.13 190.442 226.17 190.44L229.635 190.17C229.655 190.167 229.675 190.161 229.693 190.15C229.711 190.14 229.727 190.126 229.74 190.11C229.766 190.079 229.78 190.038 229.777 189.997L229.53 187.44C229.529 187.421 229.524 187.402 229.515 187.384C229.507 187.367 229.495 187.351 229.48 187.338C229.465 187.326 229.448 187.316 229.43 187.311C229.411 187.305 229.391 187.303 229.372 187.305L225.877 187.545C225.856 187.544 225.834 187.548 225.815 187.558C225.795 187.567 225.778 187.58 225.765 187.597C225.757 187.615 225.753 187.634 225.753 187.654C225.753 187.673 225.757 187.692 225.765 187.71H225.735Z" fill="white"/>
<path d="M229.5 189H228.21C228.111 189 228.015 188.96 227.945 188.89C227.874 188.82 227.835 188.724 227.835 188.625C227.837 188.526 227.877 188.432 227.947 188.362C228.017 188.292 228.111 188.252 228.21 188.25H229.5C229.599 188.252 229.693 188.292 229.763 188.362C229.833 188.432 229.873 188.526 229.875 188.625C229.875 188.724 229.835 188.82 229.765 188.89C229.695 188.96 229.599 189 229.5 189Z" fill="white"/>
<path opacity="0.2" d="M215.842 170.512C213.72 171.262 211.342 169.95 209.73 168.682C209.317 167.377 208.845 165.975 208.305 164.445C208.177 164.085 207.855 163.185 207.465 162.142C207.156 161.31 207.095 160.407 207.288 159.54C207.481 158.674 207.92 157.882 208.552 157.26C212.632 161.107 218.677 169.545 215.842 170.512Z" fill="black"/>
<path d="M208.5 156.749C208.926 156.406 209.417 156.154 209.944 156.01C210.471 155.865 211.022 155.83 211.563 155.907C212.104 155.985 212.623 156.173 213.089 156.459C213.554 156.746 213.955 157.126 214.268 157.574C217.56 162.292 223.088 170.137 223.755 170.519C224.708 171.074 231.893 164.452 238.298 156.052L242.22 157.552C242.22 157.552 232.088 178.387 224.895 178.477C219.503 178.544 211.395 167.609 207.713 162.112C207.144 161.283 206.91 160.27 207.056 159.276C207.202 158.282 207.718 157.379 208.5 156.749Z" fill="#EBB376"/>
<path opacity="0.2" d="M215.842 195.112C215.842 195.112 214.012 200.085 209.49 201.862V203.647C209.49 203.647 216.12 200.827 217.05 196.147L215.842 195.112Z" fill="black"/>
<path opacity="0.2" d="M210.698 221.302L217.05 220.109L218.565 232.874L212.483 233.759L211.605 225.449L217.095 224.669L216.78 221.519L216.69 224.317L210.518 225.307L210.698 221.302Z" fill="black"/>
</svg>
